<?xml version="1.0" encoding="UTF-8" standalone="no"?>
<svg
   xmlns:dc="http://purl.org/dc/elements/1.1/"
   xmlns:cc="http://creativecommons.org/ns#"
   xmlns:rdf="http://www.w3.org/1999/02/22-rdf-syntax-ns#"
   xmlns:svg="http://www.w3.org/2000/svg"
   xmlns="http://www.w3.org/2000/svg"
   viewBox="0 0 1000 1000"
   height="1000"
   width="1000"
   xml:space="preserve"
   version="1.1"
   id="svg2"><metadata
     id="metadata8"><rdf:RDF><cc:Work
         rdf:about=""><dc:format>image/svg+xml</dc:format><dc:type
           rdf:resource="http://purl.org/dc/dcmitype/StillImage" /></cc:Work></rdf:RDF></metadata><defs
     id="defs6" /><g
     transform="matrix(1.25,0,0,-1.25,0,1000)"
     id="g10"><g
       transform="scale(0.1,0.1)"
       id="g12"><path
         id="path14"
         style="fill:#e8e5e4;fill-opacity:1;fill-rule:nonzero;stroke:none"
         d="m 0,0 8000,0 0,8000 L 0,8000 0,0 Z" /><path
         id="path16"
         style="fill:#35343a;fill-opacity:1;fill-rule:nonzero;stroke:none"
         d="m 2825,224.391 c 0,-6.391 0.99,-11.832 2.99,-16.309 1.98,-4.504 4.71,-7.883 8.16,-10.141 3.44,-2.3 7.2,-3.41 11.3,-3.41 4.15,0 7.93,1.071 11.35,3.207 3.43,2.172 6.16,5.481 8.22,9.942 2.02,4.449 3.04,10.031 3.04,16.711 0,6.281 -1.02,11.648 -3.04,16.179 -2.06,4.532 -4.82,7.969 -8.31,10.36 -3.48,2.39 -7.3,3.57 -11.43,3.57 -4.32,0 -8.16,-1.199 -11.56,-3.66 -3.38,-2.449 -6.04,-5.961 -7.9,-10.539 -1.88,-4.551 -2.82,-9.86 -2.82,-15.91 z m 46.37,-34.61 0,2.321 c -3.17,-3.622 -6.28,-6.571 -9.37,-8.864 -3.08,-2.258 -6.4,-3.976 -10.02,-5.156 -3.59,-1.191 -7.51,-1.781 -11.77,-1.781 -5.65,0 -10.86,1.211 -15.67,3.578 -4.82,2.402 -8.97,5.801 -12.47,10.23 -3.52,4.43 -6.18,9.653 -7.98,15.629 -1.84,6.004 -2.73,12.434 -2.73,19.442 0,14.699 3.6,26.191 10.79,34.422 7.19,8.238 16.65,12.339 28.41,12.339 6.77,0 12.51,-1.152 17.16,-3.492 4.69,-2.328 9.22,-5.91 13.65,-10.738 l 0,34.769 c 0,4.84 0.96,8.512 2.88,10.989 1.93,2.472 4.67,3.722 8.24,3.722 3.57,0 6.34,-1.16 8.25,-3.429 1.95,-2.282 2.9,-5.641 2.9,-10.051 l 0,-103.93 c 0,-4.492 -1.03,-7.871 -3.11,-10.101 -2.08,-2.239 -4.75,-3.379 -8.04,-3.379 -3.22,0 -5.88,1.16 -7.97,3.5 -2.11,2.328 -3.15,5.679 -3.15,9.98" /><path
         id="path18"
         style="fill:#35343a;fill-opacity:1;fill-rule:nonzero;stroke:none"
         d="m 2936.98,231.801 42.72,0 c -0.58,8.058 -2.75,14.078 -6.53,18.078 -3.77,4.031 -8.73,6.023 -14.89,6.023 -5.84,0 -10.69,-2.031 -14.45,-6.113 -3.76,-4.051 -6.07,-10.027 -6.85,-17.988 z m 46.09,-13.36 -46.09,0 c 0.04,-5.359 1.13,-10.089 3.23,-14.16 2.09,-4.082 4.89,-7.16 8.38,-9.222 3.47,-2.09 7.31,-3.129 11.51,-3.129 2.82,0 5.39,0.332 7.72,0.992 2.34,0.629 4.58,1.719 6.78,3.109 2.19,1.43 4.19,2.93 6.05,4.539 1.83,1.61 4.21,3.782 7.16,6.551 1.2,1.039 2.94,1.57 5.18,1.57 2.42,0 4.37,-0.679 5.87,-1.992 1.49,-1.32 2.24,-3.187 2.24,-5.64 0,-2.098 -0.84,-4.59 -2.51,-7.469 -1.67,-2.809 -4.18,-5.57 -7.55,-8.168 -3.35,-2.613 -7.6,-4.801 -12.68,-6.531 -5.1,-1.719 -10.95,-2.59 -17.56,-2.59 -15.16,0 -26.9,4.32 -35.31,12.961 -8.4,8.629 -12.61,20.32 -12.61,35.129 0,6.949 1.04,13.429 3.11,19.379 2.06,5.949 5.09,11.058 9.06,15.332 3.97,4.218 8.86,7.5 14.67,9.789 5.82,2.269 12.28,3.41 19.34,3.41 9.22,0 17.12,-1.942 23.68,-5.832 6.62,-3.887 11.54,-8.918 14.83,-15.059 3.26,-6.148 4.92,-12.449 4.92,-18.82 0,-5.93 -1.72,-9.77 -5.09,-11.551 -3.42,-1.726 -8.19,-2.598 -14.33,-2.598" /><path
         id="path20"
         style="fill:#35343a;fill-opacity:1;fill-rule:nonzero;stroke:none"
         d="m 3098.2,207.121 c 0,-6.492 -1.57,-12.062 -4.74,-16.68 -3.16,-4.66 -7.84,-8.16 -14.01,-10.562 -6.18,-2.367 -13.73,-3.578 -22.57,-3.578 -8.48,0 -15.74,1.32 -21.78,3.89 -6.05,2.59 -10.5,5.84 -13.37,9.707 -2.86,3.872 -4.32,7.793 -4.32,11.704 0,2.589 0.92,4.808 2.76,6.636 1.86,1.844 4.17,2.782 6.99,2.782 2.5,0 4.37,-0.622 5.71,-1.821 1.31,-1.207 2.6,-2.91 3.8,-5.09 2.42,-4.199 5.31,-7.347 8.67,-9.41 3.36,-2.07 7.97,-3.109 13.78,-3.109 4.71,0 8.58,1.051 11.6,3.172 3.02,2.09 4.54,4.48 4.54,7.168 0,4.16 -1.59,7.179 -4.71,9.09 -3.15,1.878 -8.31,3.71 -15.5,5.429 -8.12,2.02 -14.71,4.121 -19.8,6.332 -5.09,2.219 -9.16,5.141 -12.21,8.758 -3.05,3.641 -4.58,8.102 -4.58,13.402 0,4.711 1.41,9.168 4.22,13.368 2.79,4.203 6.99,7.531 12.48,10.05 5.49,2.52 12.13,3.762 19.89,3.762 6.09,0 11.58,-0.641 16.44,-1.902 4.87,-1.27 8.93,-2.977 12.17,-5.11 3.27,-2.129 5.73,-4.468 7.43,-7.058 1.69,-2.61 2.54,-5.121 2.54,-7.59 0,-2.699 -0.89,-4.93 -2.71,-6.652 -1.81,-1.719 -4.4,-2.598 -7.72,-2.598 -2.43,0 -4.47,0.699 -6.18,2.07 -1.71,1.41 -3.65,3.469 -5.83,6.207 -1.78,2.325 -3.87,4.16 -6.3,5.543 -2.42,1.391 -5.69,2.071 -9.84,2.071 -4.26,0 -7.79,-0.922 -10.62,-2.743 -2.8,-1.777 -4.23,-4.058 -4.23,-6.738 0,-2.48 1.05,-4.519 3.12,-6.101 2.07,-1.579 4.85,-2.879 8.37,-3.938 3.51,-1.031 8.33,-2.301 14.49,-3.781 7.32,-1.801 13.28,-3.922 17.93,-6.403 4.62,-2.476 8.12,-5.378 10.52,-8.75 2.38,-3.378 3.57,-7.207 3.57,-11.527" /><path
         id="path22"
         style="fill:#35343a;fill-opacity:1;fill-rule:nonzero;stroke:none"
         d="m 3141.7,258.762 0,-68.141 c 0,-4.711 -1.11,-8.269 -3.36,-10.699 -2.24,-2.41 -5.09,-3.621 -8.54,-3.621 -3.44,0 -6.27,1.25 -8.41,3.719 -2.17,2.492 -3.23,6.011 -3.23,10.601 l 0,67.43 c 0,4.66 1.06,8.191 3.23,10.527 2.14,2.371 4.97,3.543 8.41,3.543 3.45,0 6.3,-1.172 8.54,-3.543 2.25,-2.336 3.36,-5.648 3.36,-9.816 z m -11.64,24.328 c -3.29,0 -6.1,1.012 -8.39,3.012 -2.35,2.019 -3.51,4.867 -3.51,8.539 0,3.351 1.17,6.097 3.58,8.25 2.37,2.168 5.15,3.23 8.32,3.23 3.04,0 5.76,-0.969 8.13,-2.922 2.33,-1.949 3.51,-4.808 3.51,-8.558 0,-3.602 -1.13,-6.45 -3.42,-8.5 -2.32,-2.032 -5.05,-3.051 -8.22,-3.051" /><path
         id="path24"
         style="fill:#35343a;fill-opacity:1;fill-rule:nonzero;stroke:none"
         d="m 3184.42,224.992 c 0,-9.551 2.1,-16.801 6.27,-21.672 4.18,-4.879 9.57,-7.328 16.2,-7.328 3.91,0 7.61,1.059 11.07,3.129 3.5,2.121 6.35,5.289 8.52,9.52 2.2,4.218 3.27,9.359 3.27,15.418 0,9.589 -2.11,17.07 -6.32,22.421 -4.23,5.372 -9.81,8.02 -16.73,8.02 -6.71,0 -12.12,-2.539 -16.18,-7.668 -4.06,-5.121 -6.1,-12.391 -6.1,-21.84 z m 68.31,29.867 0,-68.437 c 0,-7.852 -0.84,-14.563 -2.52,-20.203 -1.66,-5.656 -4.34,-10.309 -8.02,-14 -3.67,-3.68 -8.5,-6.418 -14.46,-8.188 -5.96,-1.781 -13.36,-2.672 -22.2,-2.672 -8.13,0 -15.38,1.141 -21.78,3.403 -6.39,2.289 -11.31,5.207 -14.76,8.789 -3.44,3.621 -5.17,7.289 -5.17,11.101 0,2.887 0.96,5.227 2.92,7.028 1.96,1.82 4.31,2.73 7.09,2.73 3.46,0 6.47,-1.519 9.06,-4.582 1.27,-1.547 2.57,-3.109 3.92,-4.676 1.35,-1.601 2.85,-2.953 4.5,-4.093 1.61,-1.118 3.61,-1.938 5.91,-2.489 2.3,-0.531 4.95,-0.82 7.94,-0.82 6.09,0 10.84,0.828 14.2,2.539 3.35,1.691 5.72,4.07 7.1,7.133 1.32,3.058 2.11,6.308 2.36,9.789 0.21,3.469 0.39,9.07 0.53,16.789 -3.64,-5.059 -7.84,-8.918 -12.59,-11.57 -4.75,-2.629 -10.38,-3.961 -16.96,-3.961 -7.87,0 -14.76,1.992 -20.65,6.031 -5.92,4.02 -10.45,9.68 -13.6,16.93 -3.18,7.261 -4.76,15.629 -4.76,25.152 0,7.027 0.97,13.418 2.9,19.117 1.93,5.711 4.65,10.512 8.24,14.442 3.57,3.918 7.67,6.859 12.33,8.82 4.67,1.988 9.79,2.98 15.39,2.98 6.66,0 12.45,-1.269 17.33,-3.832 4.9,-2.558 9.44,-6.57 13.66,-12.031 l 0,3.164 c 0,4.078 1,7.258 3.01,9.5 2,2.278 4.59,3.379 7.76,3.379 4.54,0 7.55,-1.492 9.08,-4.449 1.47,-2.961 2.24,-7.223 2.24,-12.813" /><path
         id="path26"
         style="fill:#35343a;fill-opacity:1;fill-rule:nonzero;stroke:none"
         d="m 3297.97,259.102 0,-2.86 c 4.13,5.469 8.65,9.477 13.59,12.028 4.9,2.562 10.55,3.851 16.95,3.851 6.22,0 11.75,-1.34 16.68,-4.039 4.86,-2.711 8.53,-6.543 10.94,-11.5 1.55,-2.863 2.58,-5.98 3.02,-9.312 0.47,-3.34 0.68,-7.618 0.68,-12.782 l 0,-43.867 c 0,-4.711 -1.08,-8.269 -3.21,-10.699 -2.17,-2.41 -4.98,-3.621 -8.43,-3.621 -3.5,0 -6.36,1.25 -8.54,3.719 -2.18,2.492 -3.3,6.011 -3.3,10.601 l 0,39.301 c 0,7.738 -1.06,13.699 -3.22,17.84 -2.16,4.09 -6.45,6.148 -12.91,6.148 -4.19,0 -8.03,-1.25 -11.49,-3.75 -3.44,-2.469 -5.99,-5.941 -7.6,-10.301 -1.13,-3.527 -1.71,-10.109 -1.71,-19.707 l 0,-29.531 c 0,-4.762 -1.11,-8.34 -3.32,-10.742 -2.23,-2.367 -5.09,-3.578 -8.59,-3.578 -3.39,0 -6.18,1.25 -8.39,3.719 -2.18,2.492 -3.25,6.011 -3.25,10.601 l 0,68.141 c 0,4.476 0.96,7.82 2.91,10.039 1.96,2.219 4.63,3.32 8.05,3.32 2.06,0 3.93,-0.48 5.59,-1.48 1.66,-0.961 3.03,-2.442 4.01,-4.391 1.03,-1.949 1.54,-4.34 1.54,-7.148" /><path
         id="path28"
         style="fill:#35343a;fill-opacity:1;fill-rule:nonzero;stroke:none"
         d="m 3403.01,231.801 42.73,0 c -0.59,8.058 -2.77,14.078 -6.55,18.078 -3.74,4.031 -8.72,6.023 -14.87,6.023 -5.86,0 -10.71,-2.031 -14.46,-6.113 -3.76,-4.051 -6.06,-10.027 -6.85,-17.988 z m 46.08,-13.36 -46.08,0 c 0.05,-5.359 1.13,-10.089 3.24,-14.16 2.08,-4.082 4.88,-7.16 8.36,-9.222 3.49,-2.09 7.32,-3.129 11.52,-3.129 2.83,0 5.39,0.332 7.75,0.992 2.31,0.629 4.56,1.719 6.76,3.109 2.19,1.43 4.2,2.93 6.03,4.539 1.85,1.61 4.24,3.782 7.17,6.551 1.2,1.039 2.95,1.57 5.18,1.57 2.44,0 4.36,-0.679 5.85,-1.992 1.51,-1.32 2.27,-3.187 2.27,-5.64 0,-2.098 -0.82,-4.59 -2.49,-7.469 -1.68,-2.809 -4.2,-5.57 -7.57,-8.168 -3.36,-2.613 -7.59,-4.801 -12.69,-6.531 -5.08,-1.719 -10.96,-2.59 -17.56,-2.59 -15.15,0 -26.89,4.32 -35.32,12.961 -8.39,8.629 -12.61,20.32 -12.61,35.129 0,6.949 1.06,13.429 3.11,19.379 2.08,5.949 5.1,11.058 9.08,15.332 3.98,4.218 8.86,7.5 14.67,9.789 5.82,2.269 12.25,3.41 19.35,3.41 9.2,0 17.09,-1.942 23.67,-5.832 6.61,-3.887 11.53,-8.918 14.82,-15.059 3.29,-6.148 4.92,-12.449 4.92,-18.82 0,-5.93 -1.7,-9.77 -5.08,-11.551 -3.41,-1.726 -8.18,-2.598 -14.35,-2.598" /><path
         id="path30"
         style="fill:#35343a;fill-opacity:1;fill-rule:nonzero;stroke:none"
         d="m 3506.59,224.391 c 0,-6.391 1,-11.832 2.97,-16.309 1.98,-4.504 4.71,-7.883 8.16,-10.141 3.45,-2.3 7.22,-3.41 11.3,-3.41 4.16,0 7.94,1.071 11.38,3.207 3.38,2.172 6.14,5.481 8.17,9.942 2.05,4.449 3.1,10.031 3.1,16.711 0,6.281 -1.05,11.648 -3.1,16.179 -2.03,4.532 -4.79,7.969 -8.28,10.36 -3.47,2.39 -7.29,3.57 -11.44,3.57 -4.3,0 -8.16,-1.199 -11.57,-3.66 -3.39,-2.449 -6.03,-5.961 -7.89,-10.539 -1.87,-4.551 -2.8,-9.86 -2.8,-15.91 z m 46.34,-34.61 0,2.321 c -3.16,-3.622 -6.27,-6.571 -9.37,-8.864 -3.07,-2.258 -6.42,-3.976 -10,-5.156 -3.62,-1.191 -7.52,-1.781 -11.8,-1.781 -5.63,0 -10.84,1.211 -15.65,3.578 -4.81,2.402 -8.97,5.801 -12.48,10.23 -3.49,4.43 -6.17,9.653 -7.98,15.629 -1.8,6.004 -2.72,12.434 -2.72,19.442 0,14.699 3.61,26.191 10.79,34.422 7.19,8.238 16.67,12.339 28.42,12.339 6.79,0 12.5,-1.152 17.16,-3.492 4.67,-2.328 9.21,-5.91 13.63,-10.738 l 0,34.769 c 0,4.84 0.98,8.512 2.9,10.989 1.93,2.472 4.66,3.722 8.26,3.722 3.55,0 6.29,-1.16 8.24,-3.429 1.93,-2.282 2.88,-5.641 2.88,-10.051 l 0,-103.93 c 0,-4.492 -1.03,-7.871 -3.12,-10.101 -2.07,-2.239 -4.75,-3.379 -8,-3.379 -3.25,0 -5.9,1.16 -8.01,3.5 -2.1,2.328 -3.15,5.679 -3.15,9.98" /><path
         id="path32"
         style="fill:#35343a;fill-opacity:1;fill-rule:nonzero;stroke:none"
         d="m 3665.93,223.691 c 0,-9.378 2.15,-16.589 6.42,-21.632 4.3,-5.008 9.92,-7.528 16.88,-7.528 5.92,0 11.04,2.559 15.33,7.719 4.29,5.141 6.43,12.531 6.43,22.141 0,6.218 -0.89,11.55 -2.67,16.05 -1.79,4.5 -4.34,7.95 -7.62,10.399 -3.26,2.461 -7.08,3.66 -11.47,3.66 -4.48,0 -8.47,-1.199 -11.99,-3.66 -3.5,-2.449 -6.29,-5.981 -8.28,-10.629 -2.04,-4.609 -3.03,-10.129 -3.03,-16.52 z m -1.12,70.02 0,-36 c 4.42,4.609 8.94,8.129 13.54,10.559 4.61,2.468 10.31,3.671 17.1,3.671 7.81,0 14.68,-1.839 20.59,-5.57 5.9,-3.68 10.46,-9.082 13.72,-16.121 3.27,-7.059 4.88,-15.422 4.88,-25.07 0,-7.16 -0.89,-13.711 -2.72,-19.649 -1.81,-5.961 -4.44,-11.152 -7.9,-15.5 -3.45,-4.359 -7.63,-7.75 -12.56,-10.152 -4.92,-2.367 -10.35,-3.578 -16.27,-3.578 -3.61,0 -7.03,0.449 -10.22,1.32 -3.2,0.848 -5.92,1.981 -8.16,3.399 -2.25,1.41 -4.16,2.859 -5.75,4.351 -1.59,1.5 -3.65,3.738 -6.25,6.731 l 0,-2.321 c 0,-4.449 -1.05,-7.781 -3.19,-10.082 -2.12,-2.258 -4.83,-3.398 -8.12,-3.398 -3.32,0 -6,1.14 -7.99,3.398 -1.97,2.301 -2.97,5.633 -2.97,10.082 l 0,102.879 c 0,4.77 0.96,8.379 2.9,10.84 1.93,2.449 4.61,3.691 8.06,3.691 3.62,0 6.4,-1.179 8.37,-3.531 1.97,-2.328 2.94,-5.648 2.94,-9.949" /><path
         id="path34"
         style="fill:#35343a;fill-opacity:1;fill-rule:nonzero;stroke:none"
         d="m 3772.97,173.379 2.14,5.269 -29,73.012 c -1.78,4.211 -2.68,7.25 -2.68,9.141 0,2.019 0.53,3.91 1.58,5.64 1.03,1.707 2.44,3.09 4.25,4.129 1.81,1.02 3.71,1.551 5.67,1.551 3.39,0 5.96,-1.09 7.69,-3.23 1.71,-2.172 3.23,-5.25 4.57,-9.289 l 19.93,-58 18.9,53.961 c 1.49,4.378 2.86,7.757 4.05,10.269 1.21,2.449 2.5,4.129 3.85,4.988 1.35,0.86 3.27,1.301 5.75,1.301 1.77,0 3.49,-0.48 5.13,-1.441 1.64,-0.95 2.9,-2.211 3.78,-3.809 0.9,-1.652 1.35,-3.32 1.35,-5.109 -0.24,-1.082 -0.61,-2.641 -1.11,-4.66 -0.51,-2.032 -1.16,-4.063 -1.91,-6.141 l -30.72,-80.43 c -2.66,-7.09 -5.24,-12.633 -7.78,-16.652 -2.54,-4.039 -5.87,-7.129 -10.06,-9.297 -4.17,-2.152 -9.8,-3.223 -16.86,-3.223 -6.9,0 -12.09,0.731 -15.54,2.231 -3.45,1.492 -5.18,4.23 -5.18,8.211 0,2.699 0.81,4.789 2.45,6.25 1.66,1.48 4.07,2.211 7.3,2.211 1.26,0 2.49,-0.192 3.71,-0.52 1.5,-0.363 2.79,-0.512 3.89,-0.512 2.71,0 4.83,0.391 6.38,1.192 1.56,0.808 2.96,2.207 4.18,4.219 1.24,1.961 2.67,4.89 4.29,8.738" /><path
         id="path36"
         style="fill:#35343a;fill-opacity:1;fill-rule:nonzero;stroke:none"
         d="m 4209.04,270.059 5.62,0 0,7.07 c 0,7.359 0.94,13.23 2.79,17.582 1.86,4.328 5.05,7.5 9.51,9.48 4.46,1.989 10.56,3 18.34,3 13.76,0 20.64,-3.382 20.64,-10.109 0,-2.223 -0.72,-4.082 -2.17,-5.633 -1.42,-1.539 -3.13,-2.328 -5.11,-2.328 -0.92,0 -2.49,0.192 -4.73,0.531 -2.25,0.34 -4.13,0.5 -5.7,0.5 -4.24,0 -6.99,-1.23 -8.2,-3.742 -1.19,-2.519 -1.8,-6.09 -1.8,-10.75 l 0,-5.601 5.77,0 c 8.98,0 13.48,-2.719 13.48,-8.118 0,-3.851 -1.2,-6.32 -3.59,-7.339 -2.39,-1.032 -5.67,-1.563 -9.89,-1.563 l -5.77,0 0,-62.418 c 0,-4.641 -1.14,-8.191 -3.35,-10.66 -2.2,-2.441 -5.08,-3.66 -8.58,-3.66 -3.32,0 -6.1,1.219 -8.3,3.66 -2.25,2.469 -3.34,6.019 -3.34,10.66 l 0,62.418 -6.49,0 c -3.51,0 -6.2,0.793 -8.09,2.402 -1.92,1.539 -2.86,3.598 -2.86,6.149 0,5.64 3.95,8.469 11.82,8.469" /><path
         id="path38"
         style="fill:#35343a;fill-opacity:1;fill-rule:nonzero;stroke:none"
         d="m 4293.22,210.332 0,-19.711 c 0,-4.762 -1.13,-8.34 -3.38,-10.742 -2.25,-2.367 -5.08,-3.578 -8.55,-3.578 -3.39,0 -6.17,1.211 -8.35,3.621 -2.2,2.43 -3.29,5.988 -3.29,10.699 l 0,65.621 c 0,10.578 3.84,15.879 11.47,15.879 3.94,0 6.74,-1.242 8.48,-3.719 1.7,-2.453 2.64,-6.113 2.83,-10.961 2.83,4.848 5.72,8.508 8.69,10.961 2.96,2.477 6.92,3.719 11.86,3.719 4.94,0 9.74,-1.242 14.42,-3.719 4.65,-2.453 6.98,-5.742 6.98,-9.851 0,-2.871 -0.99,-5.231 -2.99,-7.11 -1.99,-1.859 -4.09,-2.793 -6.41,-2.793 -0.86,0 -2.96,0.532 -6.26,1.602 -3.31,1.07 -6.24,1.602 -8.77,1.602 -3.47,0 -6.29,-0.922 -8.45,-2.743 -2.18,-1.808 -3.88,-4.5 -5.09,-8.078 -1.2,-3.551 -2.04,-7.801 -2.51,-12.722 -0.48,-4.907 -0.68,-10.93 -0.68,-17.977" /><path
         id="path40"
         style="fill:#35343a;fill-opacity:1;fill-rule:nonzero;stroke:none"
         d="m 4362.53,231.801 42.69,0 c -0.57,8.058 -2.71,14.078 -6.5,18.078 -3.77,4.031 -8.71,6.023 -14.88,6.023 -5.85,0 -10.7,-2.031 -14.46,-6.113 -3.75,-4.051 -6.04,-10.027 -6.85,-17.988 z m 46.07,-13.36 -46.07,0 c 0.05,-5.359 1.13,-10.089 3.21,-14.16 2.11,-4.082 4.89,-7.16 8.38,-9.222 3.53,-2.09 7.34,-3.129 11.54,-3.129 2.8,0 5.4,0.332 7.73,0.992 2.34,0.629 4.57,1.719 6.76,3.109 2.2,1.43 4.23,2.93 6.05,4.539 1.85,1.61 4.25,3.782 7.17,6.551 1.2,1.039 2.95,1.57 5.19,1.57 2.39,0 4.36,-0.679 5.84,-1.992 1.51,-1.32 2.25,-3.187 2.25,-5.64 0,-2.098 -0.82,-4.59 -2.51,-7.469 -1.68,-2.809 -4.19,-5.57 -7.52,-8.168 -3.37,-2.613 -7.62,-4.801 -12.71,-6.531 -5.08,-1.719 -10.96,-2.59 -17.58,-2.59 -15.13,0 -26.91,4.32 -35.28,12.961 -8.39,8.629 -12.63,20.32 -12.63,35.129 0,6.949 1.06,13.429 3.1,19.379 2.09,5.949 5.12,11.058 9.08,15.332 3.98,4.218 8.86,7.5 14.68,9.789 5.84,2.269 12.25,3.41 19.35,3.41 9.18,0 17.07,-1.942 23.67,-5.832 6.61,-3.887 11.55,-8.918 14.83,-15.059 3.26,-6.148 4.91,-12.449 4.91,-18.82 0,-5.93 -1.69,-9.77 -5.07,-11.551 -3.44,-1.726 -8.18,-2.598 -14.37,-2.598" /><path
         id="path42"
         style="fill:#35343a;fill-opacity:1;fill-rule:nonzero;stroke:none"
         d="m 4467.58,231.801 42.73,0 c -0.59,8.058 -2.78,14.078 -6.52,18.078 -3.8,4.031 -8.74,6.023 -14.89,6.023 -5.87,0 -10.69,-2.031 -14.49,-6.113 -3.74,-4.051 -6.04,-10.027 -6.83,-17.988 z m 46.1,-13.36 -46.1,0 c 0.04,-5.359 1.13,-10.089 3.24,-14.16 2.07,-4.082 4.88,-7.16 8.37,-9.222 3.5,-2.09 7.32,-3.129 11.51,-3.129 2.8,0 5.39,0.332 7.72,0.992 2.35,0.629 4.58,1.719 6.79,3.109 2.18,1.43 4.2,2.93 6.03,4.539 1.87,1.61 4.25,3.782 7.18,6.551 1.21,1.039 2.9,1.57 5.17,1.57 2.42,0 4.37,-0.679 5.86,-1.992 1.51,-1.32 2.25,-3.187 2.25,-5.64 0,-2.098 -0.82,-4.59 -2.49,-7.469 -1.67,-2.809 -4.19,-5.57 -7.56,-8.168 -3.36,-2.613 -7.6,-4.801 -12.69,-6.531 -5.09,-1.719 -10.95,-2.59 -17.56,-2.59 -15.13,0 -26.91,4.32 -35.34,12.961 -8.36,8.629 -12.55,20.32 -12.55,35.129 0,6.949 1.01,13.429 3.06,19.379 2.1,5.949 5.12,11.058 9.07,15.332 3.99,4.218 8.88,7.5 14.69,9.789 5.82,2.269 12.28,3.41 19.32,3.41 9.23,0 17.13,-1.942 23.73,-5.832 6.57,-3.887 11.49,-8.918 14.79,-15.059 3.29,-6.148 4.91,-12.449 4.91,-18.82 0,-5.93 -1.68,-9.77 -5.09,-11.551 -3.38,-1.726 -8.16,-2.598 -14.31,-2.598" /><path
         id="path44"
         style="fill:#35343a;fill-opacity:1;fill-rule:nonzero;stroke:none"
         d="m 4618.54,224.652 c 0,6.219 -0.94,11.547 -2.87,15.989 -1.87,4.48 -4.51,7.898 -7.88,10.289 -3.38,2.39 -7.07,3.57 -11.17,3.57 -6.49,0 -11.98,-2.539 -16.44,-7.668 -4.47,-5.121 -6.69,-12.652 -6.69,-22.633 0,-9.371 2.2,-16.648 6.64,-21.871 4.44,-5.199 9.93,-7.797 16.49,-7.797 3.92,0 7.56,1.11 10.87,3.41 3.35,2.258 5.99,5.668 8.02,10.219 2.02,4.539 3.03,10.012 3.03,16.492 z m -46.17,34.258 0,-2.832 c 4.45,5.461 9.05,9.473 13.78,12.031 4.81,2.563 10.23,3.832 16.25,3.832 7.26,0 13.94,-1.859 20.02,-5.601 6.12,-3.758 10.92,-9.199 14.49,-16.399 3.52,-7.203 5.28,-15.679 5.28,-25.55 0,-7.25 -1.03,-13.899 -3.07,-19.981 -2.02,-6.07 -4.83,-11.18 -8.42,-15.269 -3.56,-4.121 -7.75,-7.301 -12.63,-9.5 -4.85,-2.219 -10.08,-3.34 -15.67,-3.34 -6.74,0 -12.38,1.359 -16.96,4.078 -4.56,2.684 -8.95,6.641 -13.07,11.902 l 0,-35.41 c 0,-10.351 -3.8,-15.512 -11.32,-15.512 -4.43,0 -7.34,1.321 -8.78,4.012 -1.46,2.668 -2.16,6.57 -2.16,11.688 l 0,101.703 c 0,4.476 0.98,7.82 2.92,10.039 1.95,2.219 4.63,3.32 8.02,3.32 3.34,0 6.07,-1.101 8.17,-3.402 2.1,-2.278 3.15,-5.559 3.15,-9.809" /><path
         id="path46"
         style="fill:#35343a;fill-opacity:1;fill-rule:nonzero;stroke:none"
         d="m 4684.64,258.762 0,-68.141 c 0,-4.711 -1.09,-8.269 -3.36,-10.699 -2.26,-2.41 -5.08,-3.621 -8.55,-3.621 -3.44,0 -6.23,1.25 -8.39,3.719 -2.18,2.492 -3.23,6.011 -3.23,10.601 l 0,67.43 c 0,4.66 1.05,8.191 3.23,10.527 2.16,2.371 4.95,3.543 8.39,3.543 3.47,0 6.29,-1.172 8.55,-3.543 2.27,-2.336 3.36,-5.648 3.36,-9.816 z m -11.62,24.328 c -3.3,0 -6.12,1.012 -8.42,3.012 -2.31,2.019 -3.49,4.867 -3.49,8.539 0,3.351 1.18,6.097 3.57,8.25 2.36,2.168 5.17,3.23 8.34,3.23 3.05,0 5.73,-0.969 8.09,-2.922 2.38,-1.949 3.53,-4.808 3.53,-8.558 0,-3.602 -1.14,-6.45 -3.41,-8.5 -2.32,-2.032 -5.04,-3.051 -8.21,-3.051" /><path
         id="path48"
         style="fill:#35343a;fill-opacity:1;fill-rule:nonzero;stroke:none"
         d="m 4767.71,187.121 -20.8,34.168 -12.79,-12.09 0,-18.75 c 0,-4.539 -1.18,-8.019 -3.57,-10.488 -2.41,-2.441 -5.15,-3.66 -8.25,-3.66 -3.63,0 -6.46,1.211 -8.55,3.621 -2.06,2.43 -3.1,5.988 -3.1,10.699 l 0,100.5 c 0,5.219 0.97,9.211 3.01,11.961 2.02,2.707 4.9,4.109 8.64,4.109 3.64,0 6.52,-1.25 8.64,-3.722 2.12,-2.477 3.18,-6.149 3.18,-10.989 l 0,-57.14 26.5,27.781 c 3.31,3.481 5.79,5.828 7.51,7.098 1.72,1.261 3.81,1.902 6.3,1.902 2.94,0 5.37,-0.941 7.34,-2.808 1.97,-1.872 2.96,-4.211 2.96,-7.024 0,-3.48 -3.23,-8.07 -9.61,-13.82 L 4762.64,237 l 24.15,-38 c 1.77,-2.801 3.05,-4.961 3.83,-6.41 0.77,-1.461 1.18,-2.891 1.18,-4.199 0,-3.77 -1.06,-6.68 -3.09,-8.86 -2.03,-2.152 -4.74,-3.23 -8.05,-3.23 -2.88,0 -5.11,0.758 -6.66,2.347 -1.55,1.543 -3.65,4.364 -6.29,8.473" /><path
         id="path50"
         style="fill:#35343a;fill-opacity:1;fill-rule:nonzero;stroke:none"
         d="m 4825.97,176.301 c -3.57,0 -6.65,1.14 -9.22,3.469 -2.6,2.281 -3.91,5.519 -3.91,9.671 0,3.52 1.25,6.52 3.7,9.059 2.5,2.531 5.57,3.789 9.18,3.789 3.6,0 6.68,-1.25 9.27,-3.75 2.56,-2.508 3.83,-5.527 3.83,-9.098 0,-4.109 -1.27,-7.312 -3.83,-9.64 -2.59,-2.34 -5.57,-3.5 -9.02,-3.5" /><path
         id="path52"
         style="fill:#35343a;fill-opacity:1;fill-rule:nonzero;stroke:none"
         d="m 4950.2,205.492 c 0,-2.933 -0.9,-6.082 -2.65,-9.422 -1.76,-3.34 -4.45,-6.511 -8.01,-9.531 -3.61,-3.027 -8.16,-5.469 -13.59,-7.297 -5.49,-1.844 -11.63,-2.762 -18.51,-2.762 -14.53,0 -25.92,4.239 -34.08,12.739 -8.15,8.48 -12.25,19.863 -12.25,34.133 0,9.668 1.84,18.207 5.6,25.636 3.72,7.434 9.16,13.184 16.26,17.211 7.03,4.063 15.52,6.102 25.36,6.102 6.09,0 11.67,-0.91 16.78,-2.672 5.08,-1.789 9.42,-4.078 12.95,-6.918 3.53,-2.832 6.25,-5.84 8.11,-9.012 1.88,-3.207 2.78,-6.187 2.78,-8.949 0,-2.82 -1.04,-5.219 -3.15,-7.168 -2.07,-1.961 -4.62,-2.922 -7.6,-2.922 -1.97,0 -3.62,0.5 -4.91,1.52 -1.27,0.992 -2.74,2.601 -4.33,4.851 -2.87,4.367 -5.87,7.668 -9.04,9.871 -3.13,2.18 -7.13,3.258 -11.95,3.258 -6.95,0 -12.58,-2.719 -16.83,-8.148 -4.24,-5.442 -6.39,-12.891 -6.39,-22.321 0,-4.429 0.52,-8.5 1.62,-12.222 1.12,-3.699 2.71,-6.86 4.77,-9.481 2.05,-2.629 4.56,-4.609 7.51,-5.957 2.91,-1.34 6.16,-2.031 9.68,-2.031 4.69,0 8.73,1.102 12.13,3.289 3.36,2.18 6.32,5.512 8.92,10.012 1.46,2.64 2.99,4.738 4.66,6.199 1.68,1.5 3.7,2.238 6.12,2.238 2.89,0 5.3,-1.078 7.15,-3.258 1.91,-2.199 2.89,-4.519 2.89,-6.988" /><path
         id="path54"
         style="fill:#35343a;fill-opacity:1;fill-rule:nonzero;stroke:none"
         d="m 5035.27,224.199 c 0,9.61 -2.12,17.102 -6.33,22.442 -4.22,5.359 -9.9,8.05 -17.06,8.05 -4.59,0 -8.64,-1.191 -12.16,-3.601 -3.5,-2.391 -6.21,-5.899 -8.12,-10.551 -1.9,-4.66 -2.86,-10.098 -2.86,-16.34 0,-6.148 0.96,-11.527 2.82,-16.117 1.88,-4.613 4.54,-8.141 8.03,-10.582 3.49,-2.441 7.59,-3.66 12.29,-3.66 7.16,0 12.84,2.68 17.06,8.058 4.21,5.383 6.33,12.832 6.33,22.301 z m 23.67,0 c 0,-6.988 -1.09,-13.48 -3.29,-19.398 -2.15,-5.949 -5.35,-11.031 -9.51,-15.281 -4.12,-4.258 -9.05,-7.52 -14.82,-9.821 -5.76,-2.258 -12.24,-3.398 -19.44,-3.398 -7.11,0 -13.52,1.14 -19.24,3.469 -5.69,2.281 -10.63,5.562 -14.79,9.871 -4.18,4.3 -7.34,9.347 -9.49,15.179 -2.17,5.852 -3.24,12.321 -3.24,19.379 0,7.141 1.07,13.66 3.28,19.61 2.17,5.953 5.31,10.98 9.41,15.179 4.07,4.203 9.02,7.453 14.83,9.731 5.84,2.301 12.23,3.402 19.24,3.402 7.16,0 13.62,-1.16 19.44,-3.461 5.81,-2.289 10.8,-5.57 14.92,-9.851 4.16,-4.239 7.3,-9.321 9.47,-15.188 2.14,-5.851 3.23,-12.332 3.23,-19.422" /><path
         id="path56"
         style="fill:#35343a;fill-opacity:1;fill-rule:nonzero;stroke:none"
         d="m 5155.87,222.48 0,-31.32 c 0,-4.961 -1.11,-8.648 -3.33,-11.14 -2.26,-2.469 -5.24,-3.719 -8.92,-3.719 -3.56,0 -6.46,1.25 -8.67,3.719 -2.21,2.492 -3.33,6.179 -3.33,11.14 l 0,37.559 c 0,5.922 -0.19,10.5 -0.6,13.793 -0.39,3.289 -1.5,5.968 -3.29,8.078 -1.75,2.09 -4.59,3.14 -8.45,3.14 -7.72,0 -12.8,-2.652 -15.22,-7.929 -2.47,-5.301 -3.69,-12.903 -3.69,-22.789 l 0,-31.852 c 0,-4.898 -1.13,-8.609 -3.33,-11.09 -2.23,-2.511 -5.14,-3.769 -8.76,-3.769 -3.55,0 -6.46,1.258 -8.76,3.769 -2.26,2.481 -3.41,6.192 -3.41,11.09 l 0,67.391 c 0,4.429 1.02,7.82 3.07,10.109 2.03,2.301 4.75,3.461 8.06,3.461 3.25,0 5.92,-1.09 8.08,-3.23 2.16,-2.172 3.26,-5.149 3.26,-8.942 l 0,-2.238 c 4.08,4.871 8.42,8.488 13.1,10.789 4.69,2.289 9.84,3.441 15.53,3.441 5.94,0 11.05,-1.16 15.27,-3.539 4.28,-2.351 7.8,-5.922 10.56,-10.691 3.96,4.828 8.21,8.41 12.75,10.738 4.54,2.34 9.59,3.492 15.12,3.492 6.44,0 11.99,-1.269 16.67,-3.793 4.65,-2.539 8.1,-6.148 10.42,-10.867 2.05,-4.281 3.03,-10.961 3.03,-20.121 l 0,-46 c 0,-4.961 -1.12,-8.648 -3.36,-11.14 -2.26,-2.469 -5.2,-3.719 -8.88,-3.719 -3.57,0 -6.5,1.258 -8.77,3.769 -2.29,2.481 -3.42,6.192 -3.42,11.09 l 0,39.621 c 0,5.059 -0.2,9.098 -0.63,12.18 -0.46,3.051 -1.62,5.578 -3.51,7.66 -1.87,2.078 -4.77,3.109 -8.61,3.109 -3.11,0 -6.07,-0.921 -8.87,-2.769 -2.75,-1.84 -4.95,-4.32 -6.54,-7.41 -1.69,-3.981 -2.57,-10.969 -2.57,-21.071" /><path
         id="path58"
         style="fill:#35343a;fill-opacity:1;fill-rule:nonzero;stroke:none"
         d="m 4023.37,332.879 c -0.51,1.5 -1.01,3.012 -1.5,4.512 7.92,0.73 13.24,10.199 9.35,17.25 -3.51,7.941 -15.72,8.918 -20.43,1.648 -5.06,-6.449 -1.11,-16.578 6.61,-18.637 0.46,-1.632 0.95,-3.281 1.39,-4.922 -11.85,-0.73 -23.95,-3.378 -33.88,-10.171 1.02,-2.868 2.03,-5.77 3.04,-8.637 20.07,8.777 42.62,6.859 63.81,4.758 0.71,2.789 1.4,5.59 2.1,8.39 -9.55,4.289 -20.08,5.879 -30.49,5.809" /><path
         id="path60"
         style="fill:#35343a;fill-opacity:1;fill-rule:nonzero;stroke:none"
         d="m 4142.81,300.469 c -3.19,-1.637 -3.8,-5.43 -3.59,-8.649 -3.55,-3.441 -1.89,-8.601 -2.27,-12.941 -0.8,-2.418 -3.68,-2.68 -5.68,-3.598 -2.79,4.219 -5.73,8.289 -9.44,11.758 l 0.01,0.211 c -4.05,3.789 -8.43,7.191 -13.05,10.219 -3.72,-3.969 -7.62,-7.86 -11.2,-12.02 7.07,-7.789 13.62,-16.09 19.39,-24.898 3.98,-6.699 7.21,-13.832 9.97,-21.102 5.98,3.051 11.88,6.25 17.83,9.391 -3.13,7.301 -6.74,14.398 -10.56,21.371 2.64,1.43 6.19,2.828 6.58,6.25 0.31,3.82 -0.54,7.937 1.78,11.301 4.59,-3.012 11.62,0.398 11.68,6 0.59,5.797 -6.67,10 -11.45,6.707" /><path
         id="path62"
         style="fill:#35343a;fill-opacity:1;fill-rule:nonzero;stroke:none"
         d="m 4095.96,252.129 c -1.42,-9.699 -10.71,-17.938 -20.63,-17.301 -5.74,-0.476 -11.28,2.231 -15.17,6.293 -2.79,3.481 -5.11,7.5 -5.49,12.027 -1.32,9.883 5.58,20.032 15.25,22.415 4.25,1.179 8.69,0.527 12.87,-0.442 9.09,-3.25 15.06,-13.5 13.17,-22.992 z m -87.29,-20.457 c -3.88,-5.68 -9.49,-10.09 -15.92,-12.57 -12.11,-4.5 -26.85,-1.442 -35.55,8.25 -6.1,6.648 -9.7,15.679 -9.05,24.777 0.47,11.351 7.49,21.93 17.45,27.242 7.6,4.141 16.77,4.859 25.03,2.551 3.49,-0.883 6.7,-2.512 9.67,-4.5 6.09,-4.359 10.73,-10.762 12.76,-18 2.86,-9.27 1.05,-19.711 -4.39,-27.75 z m 101.83,25.469 c -7.77,12.879 -16.19,25.711 -27.63,35.668 -13.24,11.64 -30.4,19.492 -48.22,19.402 -22.52,0.301 -45.32,-3.371 -66.04,-12.422 -19.56,-8.578 -36.54,-23.848 -45.15,-43.648 -8.29,-17.789 -8.2,-38.282 -4.45,-57.18 20.73,-5.191 41.78,-9.801 63.15,-10.813 21.09,-0.636 42.28,-1.16 63.25,1.793 28.76,3.778 56.95,12.911 82.04,27.579 0,0 -3.45,18.949 -16.95,39.621" /><path
         id="path64"
         style="fill:#35343a;fill-opacity:1;fill-rule:nonzero;stroke:none"
         d="m 3923.73,285.98 c -8.43,-5.078 -15.35,-12.261 -21.11,-20.148 -1.7,3.117 -2.21,6.84 -4.39,9.66 -1.26,1.668 -3.49,0.969 -5.26,1.008 -2.21,-0.25 -4.42,0.359 -6.51,1 2.46,3.492 1.82,8.809 -1.97,11.039 -4.01,2.902 -10.27,0.383 -11.32,-4.398 -1.69,-5.262 3.9,-10.539 9.05,-9.149 2.74,-4.031 7.67,-3.39 11.87,-3.543 1.91,-3.301 3.35,-6.89 5.78,-9.859 -4.52,-8.918 -7.05,-18.879 -7.26,-28.86 5.79,-2.41 11.56,-4.878 17.39,-7.289 0.3,6.301 1.02,12.551 1.97,18.75 1.95,13.52 9.76,25.258 19.03,34.95 -2.29,2.41 -4.86,4.539 -7.27,6.839" /><path
         id="path66"
         style="fill:#35343a;fill-opacity:1;fill-rule:nonzero;stroke:none"
         d="m 4059.16,184 c -21.38,-4.641 -43.39,-5.988 -65.21,-5.039 -14.77,0.758 -29.52,2.109 -43.93,5.309 -10.22,2.07 -20.23,5.043 -30.28,7.902 1.61,-12.852 6.81,-25.133 14.21,-35.711 8.75,-12.301 20.44,-23.602 35.01,-28.141 11.33,-3.05 24.92,-6.961 48.25,-6.558 19.29,0.367 38.24,2.808 55.22,9.988 10.9,4.711 21.14,11.102 29.93,19.109 7.61,7.18 13.55,16.09 17.66,25.7 3.98,9.062 7.57,25.339 7.18,33.691 -20.87,-11.891 -44.27,-22.23 -68.04,-26.25" /><path
         id="path68"
         style="fill:#35343a;fill-opacity:1;fill-rule:nonzero;stroke:none"
         d="m 3949.2,7193.65 -19.58,0 0,22.44 19.58,0 0,-22.44 z m -2894.72,71.53 -20.02,0 0,-48.64 -2.41,0 0,65.35 22.43,0 0,-16.71 z m 3244.18,-5.73 0,148.76 -151.62,0 0,-185.95 -28.6,0 0,-65.8 -71.53,0 0,37.19 -85.37,0 0,22.44 99.67,0 0,12.34 -99.67,0 0,29.59 -12.34,0 0,-29.59 -19.58,0 0,-6.17 -22.89,0 0,34.33 -48.63,0 0,-34.33 -80.11,0 0,-34.33 -88.68,0 0,54.36 -14.31,0 0,40.05 -13.85,0 0,62.49 125.42,0 0,12.34 -125.42,0 0,8.13 -12.34,0 0,-8.13 -45.32,0 0,-12.34 45.32,0 0,-62.49 -59.63,0 0,-80.11 -171.65,0 0,60.08 -16.72,0 0,19.58 71.07,0 0,12.34 -71.07,0 0,5.43 -12.34,0 0,-5.43 -10.99,0 0,-12.34 10.99,0 0,-19.58 -51.04,0 0,-65.79 -38.18,0 0,19.57 38.18,0 0,12.34 -88.69,0 0,-12.34 38.17,0 0,-19.57 -55.33,0 0,-28.61 -25.75,0 0,14.3 -25.75,0 0,226 -17.16,0 0,34.33 -54.36,0 0,-266.05 -102.99,0 0,266.05 -42.91,0 0,-22.88 -22.89,0 0,-180.23 -37.19,0 0,-48.64 -17.16,0 0,48.64 -71.52,0 0,31.46 -31.47,0 0,37.2 -28.61,0 0,82.96 -45.78,0 0,-31.46 -114.43,0 0,-120.16 -60.08,0 0,40.05 -71.52,0 0,80.11 -177.37,0 0,-94.41 -27.6,0 0,-25.75 -18.17,0 0,163.07 -20.03,0 0,40.04 -34.33,0 0,-34.33 -37.19,0 0,-137.32 -17.16,0 0,-31.46 -20.03,0 0,97.27 -140.18,0 0,-80.11 -45.78,0 0,-34.33 -25.74,0 0,-20.03 -25.75,0 0,22.89 -15.73,15.74 0,35.76 -70.09,0 0,-82.97 -25.75,0 0,20.03 -28.61,0 0,228.86 -22.89,0 0,62.94 -25.74,0 0,31.47 -34.33,0 0,26.05 -51.5,0 0,-46.07 -28.61,0 0,-48.64 -17.16,0 0,-168.64 -31.47,0 0,31.32 -40.05,0 0,-45.77 -45.78,0 0,131.6 -17.16,17.16 0,60.08 -94.41,0 0,-42.91 -48.63,0 0,-85.83 -22.89,0 0,17.16 -28.61,0 -17.17,-17.16 -7.43,-7.43 0,-198.54 -32.62,0 0,197.39 -28.6,0 0,20.03 -42.91,0 0,-31.47 -40.06,0 0,-51.05 -22.43,0 0,22.44 -12.34,0 0,-22.44 -53.913,0 0,-12.34 53.913,0 0,-65.35 -5.28,0 0,-54.35 -94.407,0 0,54.35 -31.468,0 0,62.94 -12.875,12.87 0,32.9 -52.926,0 0,-88.68 -71.52,0 0,-57.22 -97.269,0 -11.445,11.44 -62.934,0 0,-154.49 3736.244,0 0,223.15 -17.17,0" /><path
         id="path70"
         style="fill:#35343a;fill-opacity:1;fill-rule:nonzero;stroke:none"
         d="m 597.117,2788.83 0,126.79 35.848,0 0,21.18 65.172,0 0,-29.33 17.105,0 0,21.18 27.696,0 0,-35.03 69.25,0 0,-22 82.281,0 0,75.77 46.433,0 0,18.73 49.696,0 0,18.74 39.102,0 0,-15.48 56.21,0 0,-10.58 39.92,0 0,-19.56 12.22,0 0,30.96 87.98,0 0,-23.63 103.46,0 0,303.87 52.14,0 0,8.15 14.66,0 0,-27.7 28.52,0 0,27.7 10.59,0 0,10.59 25.25,0 0,-9.78 30.96,0 0,-51.32 18.74,0 0,-222.41 23.62,0 0,31.78 14.67,0 0,19.55 86.35,0 0,56.21 16.29,0 0,26.07 65.18,0 0,-22.81 16.29,0 0,-13.84 25.25,0 0,-148.27 20.37,0 0,-30.15 11.41,0 0,193.08 24.68,0 0,19.55 107.29,0 0,-16.29 27.7,0 0,23.62 9.77,0 0,44.8 83.1,0 0,-31.76 9.77,0 0,-17.93 21.19,0 0,38.29 8.96,0 0,69.25 60.28,0 0,101.83 131.16,0 0,-211.81 22,0 0,26.88 10.59,0 0,26.07 28.51,0 0,38.29 22,0 0,36.66 13.85,0 0,15.47 19.55,0 0,19.56 28.51,0 0,-17.92 21.99,0 0,-13.04 20.37,0 0,-38.28 19.56,0 0,-62.74 102.64,0 0,-8.14 21.18,0 0,19.55 13.85,0 0,19.55 80.65,0 0,-19.55 15.48,0 0,-182.48 11.41,0 0,32.59 62.72,0 0,137.67 24.44,0 0,21.18 89.62,0 0,-19.55 21.99,0 0,-246.84 17.11,0 0,161.3 29.33,0 0,93.69 15.47,0 0,14.66 11.41,0 0,20.37 61.1,0 0,-13.04 26.88,0 0,19.55 39.92,0 0,-30.14 17.93,0 0,-9.77 21.18,0 0,-99.4 14.84,0 0,-171.88 29.96,0 0,17.92 28.51,0 0,81.46 20.37,0 0,161.3 42.36,0 0,36.66 17.93,0 0,-36.66 71.69,0 0,-159.67 35.84,0 0,-31.77 11.41,0 0,-38.28 33.4,0 0,10.58 10.59,0 0,30.96 8.96,0 0,26.88 61.92,0 0,-32.58 17.92,0 0,-16.29 29.32,0 0,-29.34 9.78,0 0,-52.13 21.99,0 0,147.45 181.67,0 0,-122.19 24.44,0 0,-22.01 33.41,0 0,39.93 9.77,0 0,17.11 26.07,0 0,13.84 34.21,0 0,-72.51 26.89,0 0,8.16 26.07,0 0,87.17 19.55,0 0,13.02 31.77,0 0,-10.58 16.3,0 0,-103.47 16.28,0 0,100.21 15.48,0 0,13.03 32.59,0 0,-10.59 22.81,0 0,-106.72 57.02,0 0,13.86 16.3,0 0,14.65 49.69,0 0,-13.03 13.85,0 0,-14.66 32.59,0 0,13.85 14.66,0 0,26.06 17.11,0 0,-14.66 29.33,0 0,-29.32 20.36,0 0,11.4 46.44,0 0,-65.99 -3849.253,-1.33" /><path
         id="path72"
         style="fill:#35343a;fill-opacity:1;fill-rule:nonzero;stroke:none"
         d="m 3935.98,5661.32 0,171.22 16.94,0 0,50.8 103.48,0 0,43.28 63.97,0 0,-48.92 35.75,0 0,48.92 37.63,0 0,107.25 16.93,0 0,24.46 41.4,0 0,-24.46 16.93,0 0,-94.08 15.06,0 0,-79.97 33.87,0 0,143.94 22.58,0 0,111.02 15.05,0 0,71.5 11.29,0 0,54.56 11.28,0 0,58.33 16.94,0 0,-56.45 13.17,0 0,-45.15 11.29,0 0,-86.55 15.05,0 0,-112.9 16.93,0 0,-161.82 28.23,0 0,37.64 60.21,0 0,-18.82 22.58,0 0,131.71 16.93,0 0,47.04 52.69,0 0,-45.16 11.76,-11.76 0,-76.67 20.22,0 0,24.46 52.69,0 0,-26.34 31.99,0 0,-24.46 33.87,0 0,33.87 24.46,0 0,72.43 137.35,0 0,-72.43 24.46,0 0,72.43 116.66,0 0,-29.16 31.98,0 0,-107.25 45.16,0 0,92.2 152.41,0 0,-48.92 22.57,0 0,-62.09 15.05,0 0,-37.63 65.86,0 0,112.89 63.98,0 0,-37.63 22.58,0 0,37.63 75.26,0 0,-67.74 15.05,0 0,-45.15 35.75,0 0,77.14 80.91,0 0,18.81 16.93,0 0,22.58 16.93,0 0,-18.81 18.82,0 0,22.58 43.27,0 0,-20.7 18.82,0 0,-60.21 35.76,0 0,82.79 71.49,0 0,-24.46 30.11,0 0,103.49 22.57,41.39 0,45.16 9.41,0 0,-47.04 26.35,-37.63 0,-163.7 31.98,0 0,310.46 95.97,0 0,-287.88 18.8,0 0,48.92 41.4,0 0,-30.1 86.55,0 0,-37.64 67.74,0 0,58.33 35.75,0 0,-33.87 26.34,0 0,20.7 37.63,0 0,24.46 45.16,0 0,-63.97 33.87,0 0,124.18 22.58,30.11 31.99,-31.99 0,-56.45 37.63,0 0,-50.8 47.04,0 0,56.45 31.98,0 0,24.46 43.28,0 0,-16.94 30.11,0 0,26.34 111,0 0,-88.43 9.41,0 0,18.82 43.28,0 0,-107.25 31.98,0 0,35.75 13.18,0 0,112.89 43.28,0 0,-159.93 22.57,0 0,-31.99 45.16,0 0,26.35 94.08,0 0,178.74 73.38,0 0,-182.51 150.52,0 0,-92.2 -3490.3,7.53" /><path
         id="path74"
         style="fill:#35343a;fill-opacity:1;fill-rule:nonzero;stroke:none"
         d="m 5076.22,7051.27 0,107.73 38.86,0 0,92.34 61.56,0 0,-75.55 36.38,0 0,190.27 148.29,0 0,-174.88 16.8,0 0,17.49 43.36,0 0,21.68 83.94,0 0,-21.68 30.78,0 0,-14.69 43.37,0 0,121.71 67.16,0 0,34.98 114.72,0 0,-190.27 12.58,0 0,48.27 54.57,0 0,20.29 20.98,0 0,22.38 40.58,0 0,215.45 78.35,0 0,18.19 26.58,0 0,-23.79 37.77,0 0,-32.17 46.16,0 0,19.59 23.79,0 0,-12.6 34.97,0 0,67.15 137.11,0 0,-51.76 18.19,0 0,114.72 12.58,0 0,19.59 14,0 0,43.37 55.97,0 0,-50.37 16.78,0 0,-106.33 6.99,-6.99 0,-58.76 11.2,0 0,-83.94 29.37,0 0,212.65 15.39,0 0,20.99 33.59,0 0,-16.79 48.96,0 0,-106.33 9.8,0 0,30.78 123.11,0 0,-29.38 13.98,0 0,-264.41 16.79,0 0,-37.78 14,0 0,68.55 9.79,0 0,53.17 11.19,0 0,19.58 22.39,0 0,-16.79 16.78,0 0,-95.13 22.39,0 0,88.14 19.59,0 0,22.38 16.78,0 0,-15.39 53.17,0 0,23.79 16.78,0 0,-23.79 25.19,0 0,-76.95 47.57,0 0,47.57 95.12,0 0,-29.37 19.59,0 0,19.58 61.57,0 0,13.99 39.17,0 0,-89.54 16.78,0 0,18.19 16.79,0 0,20.99 93.74,0 0,-33.58 25.18,0 0,-26.58 25.18,0 0,9.79 55.96,0 0,-79.75 -2350.06,0" /><path
         id="path76"
         style="fill:#35343a;fill-opacity:1;fill-rule:nonzero;stroke:none"
         d="m 4713.51,2774.94 0,108.86 67.38,0 0,-41.48 46.65,0 0,28.52 18.14,0 0,253.98 64.8,0 0,46.65 67.38,0 0,-36.27 93.31,0 0,-77.76 31.1,0 0,126.99 18.14,0 0,55.32 25.92,0 0,-24.21 75.15,0 0,-181.42 41.48,0 0,64.79 23.32,0 0,59.61 20.73,0 0,31.1 72.57,0 0,-158.1 41.47,0 0,165.87 77.76,0 0,-106.26 46.65,0 0,114.04 119.22,0 0,-163.28 49.24,0 0,-41.02 31.1,0 0,183.56 20.73,0 0,25.92 18.15,0 0,29.4 59.61,0 0,-31.99 25.91,0 0,-111.44 88.12,0 0,-126.99 38.88,0 0,49.23 69.98,0 0,142.55 28.5,0 0,46.65 18.15,0 0,31.99 18.14,0 0,102.78 20.73,0 0,-102.78 25.92,0 0,-42.36 18.15,0 0,-38.87 20.73,0 0,-142.54 90.7,0 0,75.15 23.33,0 0,88.13 15.55,0 0,44.05 54.43,0 0,-44.05 20.73,0 0,-98.49 18.15,0 0,-111.44 77.74,0 0,121.8 18.15,0 0,-72.57 41.47,0 0,33.7 82.93,0 0,-139.96 33.69,0 0,38.88 23.33,0 0,33.69 33.7,0 0,-46.65 28.5,0 0,114.04 10.37,0 0,-64.8 31.1,0 0,20.74 69.98,0 0,-36.29 51.83,0 0,-41.46 44.06,0 0,-44.06 33.7,0 0,38.87 82.93,0 0,46.65 20.74,0 0,-75.15 38.88,0 0,93.3 51.82,0 0,-49.25 80.35,0 0,-31.09 59.61,0 0,-46.66 49.24,0 0,23.33 31.1,0 0,-111.45 -2721.32,0" /><path
         id="path78"
         style="fill:#35343a;fill-opacity:1;fill-rule:nonzero;stroke:none"
         d="m 594.98,4157.77 0.372,77.9 65.445,-0.31 0.262,54.74 37.394,-0.18 0.141,29.47 35.836,-0.17 -0.133,-27.36 63.887,-0.31 -0.114,-23.16 34.278,-0.17 -0.231,-48.42 43.629,-0.21 0.262,54.74 49.859,-0.24 0.61,126.33 37.39,-0.18 0.102,21.05 38.951,-0.19 -0.12,-25.26 15.58,-0.07 0.24,50.52 48.3,-0.23 -0.13,-27.37 26.49,-0.13 -0.73,-151.58 28.05,-0.14 -0.14,-29.47 34.28,-0.17 1.07,223.18 39.64,-0.19 0.13,25.26 91.23,-0.44 -0.12,-25.26 46.74,-0.23 -1.04,-216.85 186.98,-0.9 1.49,311.6 21.82,-0.1 0.14,29.47 51.41,-0.24 -0.11,-25.27 34.27,-0.16 -1.48,-309.5 32.72,-0.16 1.33,277.92 21.82,-0.11 0.14,31.59 63.89,-0.31 -0.11,-23.16 26.49,-0.13 -0.8,-166.33 28.04,-0.13 0.17,33.68 29.6,-0.14 -0.16,-33.68 26.49,-0.13 0.26,54.74 148.02,-0.71 -0.8,-166.33 46.75,-0.22 0.53,111.59 143.35,-0.69 -0.48,-101.06 74.79,-0.36 0.88,185.28 24.93,-0.12 0.15,31.58 54.54,-0.26 -0.14,-29.48 57.65,-0.27 -0.15,-31.59 49.86,-0.24 -0.78,-162.11 32.72,-0.16 0.56,117.9 20.26,-0.09 0.14,29.47 57.65,-0.27 -0.14,-29.48 35.84,-0.17 -0.45,-92.64 130.88,-0.62 1.68,349.49 15.58,-0.07 0.42,86.32 24.93,-0.12 0.25,52.63 144.9,-0.69 -0.24,-50.53 43.63,-0.21 -2.21,-458.98 45.19,-0.22 1.01,210.54 21.81,-0.1 0.3,61.06 31.16,-0.15 -0.14,-29.48 37.39,-0.18 -0.1,-21.05 32.73,-0.16 -1.07,-223.17 26.48,-0.13 0.23,46.32 37.39,-0.18 1.12,233.7 15.58,-0.07 14.9,19.93 53.75,-0.26 -0.11,-24.21 24.93,-0.12 -1.26,-261.07 127.77,-0.61 1.83,381.07 63.88,-0.3 -0.15,-31.58 15.58,-0.08 0.1,21.06 96.6,-0.46 -0.14,-29.48 29.61,-0.14 -1.63,-338.97 37.4,-0.18 0.51,107.37 29.61,-0.14 0.14,29.47 39.04,-0.18 -0.15,-29.48 40.43,-0.19 -0.49,-103.17 59.2,-0.28 1.24,256.86 20.25,-0.1 0.42,88.43 132.45,-0.64 -0.19,-37.89 34.28,-0.17 -0.8,-166.32 90.37,-0.44 2.88,600.04 10.91,-0.05 0.17,35.79 79.46,-0.38 -0.08,-16.84 46.75,-0.22 -3.04,-633.73 118.41,-0.57 0.81,168.43 90.37,-0.43 0.66,136.85 130.89,-0.63 -0.22,-44.21 31.16,-0.15 -0.51,-107.38 37.4,-0.18 0.16,35.8 85.7,-0.41 -0.18,-37.9 38.96,-0.19 -0.36,-71.58 23.38,-0.12 1.25,261.08 23.37,-0.11 0.25,50.52 45.18,-0.21 59.21,-0.28 -0.12,-25.27 49.86,-0.24 -0.72,-151.59 52.96,-0.25 0.18,35.79 57.65,-0.28 -0.12,-25.26 74.78,-0.36 -0.25,-54.74 26.48,-0.13 0.13,26.32 24.93,-0.12 0.14,28.43 59.21,-0.29 -0.14,-28.43 40.51,-0.19 -0.09,-17.89 18.7,-0.09 -0.28,-58.95 29.6,-0.15 0.19,37.9 59.2,-0.28 0.12,25.26 26.5,-0.13 0.05,13.69 57.66,-0.28 -0.14,-28.42 40.51,-0.19 -0.13,-27.38 48.31,-0.22 -0.17,-33.69 23.38,-0.11 -0.85,-176.86 10.91,-0.05 0.22,48.42 20.27,-0.09 0.72,151.58 12.46,-0.05 0.13,25.26 43.62,-0.21 -0.11,-23.16 14.02,-0.06 -0.64,-134.75 20.25,-0.1 0.95,198.96 115.3,-0.55 -0.25,-53.69 14.46,-0.07 -0.29,-61.05 8.91,-0.05 -0.77,-162.11 32.71,-0.16 0.12,23.16 14.02,-0.07 0.27,56.85 12.46,-0.06 1.07,223.17 87.26,-0.42 -0.65,-134.74 14.02,-0.07 -0.43,-90.53 38.95,-0.19 -0.4,-84.22 24.93,-0.11 0.22,44.21 42.06,-0.21 0.13,27.38 141.79,-0.68 0.15,29.47 35.83,-0.17 -0.16,-33.69 37.39,-0.18 -0.37,-77.9 31.16,-0.14 0.35,71.58 21.81,-0.1 0.54,113.69 21.82,-0.11 0.22,46.32 24.93,-0.12 14.89,19.93 45.97,-0.22 1.14,238.97 93.49,-0.45 -1.15,-242.13 51.41,-0.24 -0.88,-185.28 29.59,-0.14 1.11,230.54 81.02,-0.38 -0.11,-24.22 77.91,-0.37 -0.41,-84.22 37.4,-0.18 0.3,63.17 57.65,-0.28 0.16,33.68 51.42,-0.24 -0.99,-206.33 79.47,-0.38 1.12,235.8 14.02,-0.06 0.1,18.94 82.58,-0.39 -0.18,-36.85 91.93,-0.44 -1.15,-238.96 43.63,-0.21 -0.34,-71.58 48.3,-0.23 0.42,86.32 24.93,-0.12 0.16,35.79 34.28,-0.17 -0.87,-212.59 -6837.42,-19.91" /><path
         id="path80"
         style="fill:#35343a;fill-opacity:1;fill-rule:nonzero;stroke:none"
         d="m 603.496,5656.91 0,172.58 38.992,0 0,-72.91 22.043,0 0,15.26 84.766,0 0,22.04 13.562,0 0,132.24 77.993,0 0,-52.56 52.554,0 0,-22.03 32.215,0 0,22.03 18.649,0 0,16.96 33.906,0 0,-22.04 16.957,0 0,-84.77 16.947,0 0,-18.65 16.96,0 0,18.65 12.38,12.38 0,72.39 48.65,0 0,83.07 15.26,0 0,71.21 27.13,0 0,57.65 25.43,0 0,-59.35 15.25,0 0,18.65 13.57,0 0,-20.34 25.43,0 0,-16.95 25.43,0 0,-89.86 20.35,0 0,-54.25 25.42,0 0,-32.22 23.74,0 0,140.72 6.78,0 0,27.13 10.17,0 0,69.51 13.57,0 0,-64.43 18.65,0 0,-28.81 33.91,0 0,-15.26 16.95,0 0,42.38 49.16,0 0,-45.78 32.22,0 0,-82.89 28.82,0 0,193.09 66.12,0 0,18.66 13.56,0 0,-15.26 22.04,0 0,-52.56 11.87,0 0,-106.81 22.04,0 0,-11.87 44.08,0 0,-13.56 44.08,0 0,-67.82 118.68,0 0,-13.56 35.6,0 0,20.34 39,0 0,-50.86 74.59,0 0,88.16 18.65,0 0,23.74 52.56,0 0,-18.65 25.43,0 0,-44.08 66.12,0 0,-18.65 32.21,0 0,-23.74 15.26,0 0,-33.9 30.52,0 0,23.73 22.04,0 0,57.65 42.38,0 0,218.7 100.03,0 0,-145.8 22.04,0 0,-157.68 40.69,0 0,286.52 16.95,0 0,172.93 33.91,0 0,35.61 8.48,0 0,-30.52 23.73,0 0,11.87 18.65,0 0,-122.07 30.52,0 0,-352.64 22.04,0 0,157.67 9.32,9.33 0,134.78 34.76,0 0,23.74 32.21,0 0,-23.74 28.82,0 0,35.6 33.91,0 0,-213.62 22.04,0 0,-77.98 20.34,0 0,18.64 27.13,0 0,-20.34 20.34,0 0,-47.47 77.99,0 0,-79.33 -2334.544,0" /><g
         transform="scale(10,10)"
         id="g82"><text
           id="text84"
           style="font-variant:normal;font-weight:normal;font-size:10.51049995px;font-family:Antonio;-inkscape-font-specification:Antonio-Regular;writing-mode:lr-tb;fill:#35343a;fill-opacity:1;fill-rule:nonzero;stroke:none"
           transform="matrix(1,0,0,-1,218.068,685.44)"><tspan
             id="tspan86"
             y="0"
             x="0 5.1816764 11.614102 18.530012 20.758238 27.75823 30.270241 35.441406 42.23119">SAN DIEGO</tspan><tspan
             id="tspan88"
             y="426.98499"
             x="18.4172 24.113892 31.355625 36.5373 41.476963 48.718697">BOSTON</tspan><tspan
             id="tspan90"
             y="137.54201"
             x="-59.269901 -52.269909 -46.931042 -41.707321 -36.02129 -28.779554 -26.267546 339.4361 345.5322 352.38504 354.89774 361.03543 367.30984 374.09961">DETROITCHICAGO</tspan><tspan
             id="tspan92"
             y="426.98499"
             x="360.88409 366.47568 373.32852 375.84055 380.80148 387.23392 394.23392 399.40509 404.36603 409.95761 416.81046 419.32248">PHILADELPHIA</tspan><tspan
             id="tspan94"
             y="-0.81800002"
             x="389.21609 393.76691 401.00864 406.19031 408.41785 414.85028 421.76617 428.55597 433.72714 438.68808 443.85925">LOS ANGELES</tspan><tspan
             id="tspan96"
             y="594.19897"
             x="-50.510899 -43.59499 -38.329842 -29.43796 -27.693327 -22.385712 -15.143976 -9.4893274">NEW YORK</tspan><tspan
             id="tspan98"
             y="286.26501"
             x="158.2641 166.71454 169.22655 175.6167 184.06714">MIAMI</tspan></text>
</g><path
         id="path100"
         style="fill:#35343a;fill-opacity:1;fill-rule:nonzero;stroke:none"
         d="m 1897.26,1349.41 c -0.22,-0.22 0.03,-0.39 0.51,-0.52 -0.14,0.47 -0.3,0.73 -0.51,0.52" /><path
         id="path102"
         style="fill:#35343a;fill-opacity:1;fill-rule:nonzero;stroke:none"
         d="m 3153.01,1177.55 11.49,-0.26 0,14.17 -11.49,-0.42 0.16,11.29 -10.85,0.23 0,28.54 -6.83,0.52 -0.53,7.89 -18.14,4.21 0.69,7.82 10.09,-0.2 0.26,5.26 6.83,2.36 1.57,6.59 6.32,1.82 -5,48.38 c 0,0 23.15,27.09 22.35,27.09 -0.79,0 -13.94,16.82 -13.94,16.82 l -12.88,-10.52 -14.19,27.53 -12.62,0 -9.11,12.18 7.38,8.14 0.78,12.37 13.4,1.84 -12.34,3.67 12.34,7.37 -16.03,0.52 9.2,10.78 -14.99,-7.62 -1.3,13.67 -6.31,-12.88 -4.21,0.26 -8.94,7.37 4.46,-12.88 -9.47,1.3 0,9.58 -2.25,1.21 -0.91,34.97 -5.91,8.25 0.14,1.74 10.77,0.25 0,9.74 -2.62,3.41 -7.9,0.53 -0.78,2.84 8.68,1.1 0,7.89 -2.89,4.57 -0.27,3.85 -3.15,3.67 4.5,9.46 0,6.85 -18.18,-23.83 0,-9.84 3.15,-3.72 0.8,-2.32 -3.16,0 -3.16,-4.21 0,-10.51 4.73,-2.62 0.04,-12.16 6.04,0 0,-12.25 -9.74,-44.37 0,-17.64 5.56,-4.64 0,-19.5 4.73,-10.1 -4.73,-26.09 0,-10.22 5.37,0 0.91,-4.89 -0.69,-21.1 4.18,0 0.16,-23.26 -4.34,-16.66 0,-48.71 -9.06,0.19 0,-12.91 -12.75,0.15 2.83,-15.58 10.76,0.06 -12.17,-22.75 c 0,0 -5.67,41.11 -52.43,66.6 -4.29,2.35 -8.53,4.29 -12.73,6.05 -21.31,26.21 -61.64,21.35 -61.64,21.35 l 0,20.97 -8.45,-2.58 c -2.51,8.93 -7.09,13.69 -11.15,16.23 l 0,146.81 -52.62,0 0,-108.22 -3.61,0 0,-45.41 -2.05,-2.06 -14.2,0 0,418.46 -66.72,0.83 0,-337.01 c -6.59,-0.87 -12.47,-3.11 -17.3,-5.62 l 0,306.38 -49.02,49.01 -58.89,-48.25 0.75,-263.22 c -8.83,1.08 -16.63,-0.19 -23.24,-2.6 l 0,496.42 -32.93,0.39 -0.57,6.81 25.7,-0.19 7.8,3.61 0,5.67 -6.25,5.11 -27.81,0.57 -4.54,192.4 -4.82,-192.45 -29.23,0 -6.25,-4.49 0.56,-6.81 6.81,-3.42 28.11,0 0,-5.45 -37.84,0 0,-477.21 -13.97,11.97 -22.67,-25.51 0,-31.17 -7.09,0 0,-73.67 -7.09,0 0,-33.05 -15.17,0 0,171.9 -16.01,0 0,52.69 -30.77,0 0,-52.69 -4,0 0,-47.38 -48.03,0 0,-7.82 c -6.53,0.08 -10.7,0.15 -10.7,0.15 l 0,-2.65 -4.21,0 0,34.84 -8.74,0 0,16.42 -60.72,0 0,-80.45 -22.17,0 0,-64.73 -11.04,0 0,11.73 -18.76,0 0,7.74 -8.84,0 0,11.03 -11.04,0 0,-30.5 -7.51,0 0,56.69 -15.59,94.93 -15.6,-94.93 0,-53.86 -5.36,-1.33 0,170.49 -81.21,0 0,-34.4 -11.63,0 0,-68.9 -3.6,0 -5.88,27.88 -7.57,-27.88 -20.5,0 c 0,27.88 0,63.38 0,63.38 l -15.45,0 0,-13.24 -44.16,0 0,9.93 -20.97,0 0,-14.35 -15.47,0 0,11.04 -16.55,0 0,-57.43 c -8.12,-0.32 -17.2,-0.51 -19.45,0.15 1.26,-4.4 -0.51,-34.95 -0.51,-34.95 l -12.24,0 0,-37.47 -9.93,0 0,59.52 -11.33,21.26 -11.34,-25.51 0,-42.52 -8.4,0 0,156.39 -58.35,0 0,-25.08 -6.46,0 0,-53.77 -20.98,0 0,75.85 -37.21,0 0,60.97 -47.32,0 0,-30.07 -45.75,0 0,-119.1 -4.36,0 0,-48.89 -4.29,-4.29 0,373.83 -8.67,0 0,61.5 -8.68,0 0,26.02 -8.67,0 0,10.25 -9.46,0 0,14.2 -7.89,-1.58 0,7.09 -4.73,0.79 c 0,0 -0.44,59.94 0,70.97 0.48,12.36 -12.48,13.54 -12.48,13.54 l 0,31.41 -3.94,0 0,-31.14 c -15.18,-0.57 -15.91,-12.23 -15.91,-12.23 l 0,-78.85 -11.82,0 0,-12.62 -9.47,0 0,-12.61 -9.46,-0.79 0,-22.07 -7.1,-0.8 0,-62.29 -4.73,0 0,-313.53 -7.29,-5.82 0,-6.36 c -0.43,0.01 -0.73,0.02 -0.73,0.02 l 0,-17.96 -10.25,0 0,176.64 -48.33,0 0,-189.89 -2.07,0 -22.68,22.67 0,153.98 -14.35,0 0,13.24 -37.78,0 0,89.2 -33.51,0 0,-184.11 -31.29,0 0,155.54 -40.63,0 0,-237.27 -10.25,0 0,14.35 -16.67,-0.8 0,19.99 -1,0 0,12.82 -15.46,0 0,11.05 -4.95,0 0,105.18 -56.02,0 0,-96.35 -10.98,0 0,96.35 -50.27,0 0,-79.79 -15.78,0 0,-32.73 -5.66,3.31 -7.09,-8.29 0,-12.95 -7.08,-1.43 0,-70.75 -11.13,0 0,224.18 -4.78,4.78 0,24.64 -9.6,9.6 0,56.42 -13.48,12.95 0,17.61 -2.07,2.59 0,14.5 -3.63,3.12 0,18.64 -5.175,1.04 0,18.64 -2.067,1.56 0,11.91 -3.109,2.59 0,10.88 -4.141,8.8 -0.129,83.99 0,-1.56 -1.949,-82.43 -2.59,0 0,-15.53 -7.511,-16.06 0,-13.73 -8.028,-8.03 0,-17.61 -5.312,0 0,-19.03 -3.754,-3.76 0,-15.28 -2.848,-2.85 0,-16.05 -3.058,0 0,-55.05 -7.684,0 0,-14.08 -8.953,0 0,-237.58 -10.863,0 0,12.77 -6.25,0 0,117.6 -101.387,0 0,-149 c -7.922,-0.49 -15.641,-0.43 -15.641,1.63 0,-1.01 0,-10.27 0,-22.33 l -4.422,-4.42 0,73.98 -28.699,0 0,-76.98 -14.351,0 0,95.74 -67.352,0 0,-130.88 -17.109,0 0,67.41 -66.446,0 0,-175.62 2588.818,1.65 c 0.5,51.03 -38.46,64.03 -38.46,64.03" /><path
         id="path104"
         style="fill:#ee1e41;fill-opacity:1;fill-rule:nonzero;stroke:none"
         d="m 4891.57,1148.19 -3.65,477.58 2220.1,7.85 3.65,-477.58 -2220.1,-7.85" /><path
         id="path106"
         style="fill:#ffffff;fill-opacity:1;fill-rule:nonzero;stroke:none"
         d="m 4888.73,1519.36 -0.34,44.06 2220.1,7.85 0.34,-44.06 -2220.1,-7.85" /><path
         id="path108"
         style="fill:#ffffff;fill-opacity:1;fill-rule:nonzero;stroke:none"
         d="m 4891.09,1210.55 -0.33,44.05 2220.1,7.84 0.33,-44.04 -2220.1,-7.85" /><path
         id="path110"
         style="fill:#373170;fill-opacity:1;fill-rule:nonzero;stroke:none"
         d="m 6654.08,1309.29 29.7,29.7 -0.01,0.02 0,0 -29.69,29.7 26.97,32.15 -0.01,0 0.03,0.02 -32.16,26.99 24.09,34.4 -0.02,0.02 0,0 -34.4,24.08 21,36.34 0,0.04 -36.36,20.99 17.76,38.07 -0.03,0.02 0,0 -38.06,17.74 14.36,39.43 0,0.03 -39.45,14.36 10.88,40.57 -0.03,0 0,0 -40.55,10.87 7.28,41.32 -0.01,0 0.01,0.05 -41.34,7.29 3.67,41.85 -0.03,0 0,0 -41.84,3.67 0,41.98 -41.98,0 -3.66,41.84 -0.02,0 0,0 -41.85,-3.66 -7.28,41.34 -0.01,0 0,0.03 -41.33,-7.3 -10.88,40.58 -0.01,-0.02 0,0.02 -40.58,-10.88 -14.35,39.44 0,0 -0.02,0.02 -39.44,-14.36 -17.74,38.06 -0.03,0 0,0 -38.07,-17.74 -20.97,36.35 0,0 -0.02,0.02 -36.35,-21 -24.1,34.41 -0.02,-0.02 0,0 -34.42,-24.08 -26.97,32.15 0,0 -0.02,0.02 -32.16,-26.97 -29.69,29.69 -0.02,-0.02 0,0 -29.69,-29.69 -32.15,26.97 -0.01,0 -0.03,0.02 -26.97,-32.16 -34.41,24.09 -0.01,-0.02 0,0 -24.1,-34.39 -36.33,20.98 0,0 -0.03,0.02 -0.02,-0.02 0,0 -15.28,-26.47 -5.69,-9.88 -38.08,17.76 -0.01,-0.02 0,0 -17.74,-38.06 -39.43,14.36 0,-0.02 -0.03,0.02 -14.36,-39.44 -40.57,10.88 0,-0.04 -0.02,0 -10.86,-40.56 -41.33,7.28 0,0 -0.04,0.02 -7.28,-41.35 -41.85,3.67 0,-0.03 -3.66,-41.84 -41.97,0 -0.02,0 0,-41.98 -41.84,-3.66 0,-0.03 -0.02,0 3.66,-41.83 -41.32,-7.3 -0.03,0 7.3,-41.34 -40.58,-10.88 0.01,-0.02 -0.01,0 10.87,-40.56 -39.43,-14.36 0,0 -0.04,-0.02 14.35,-39.44 -38.05,-17.74 0.01,-0.02 -0.01,0 17.74,-38.07 -36.34,-20.99 0,0 -0.01,-0.03 0,-0.01 6.92,-11.97 14.06,-24.35 -34.4,-24.1 0.02,0 -0.02,-0.02 24.09,-34.4 -29.18,-24.5 -2.98,-2.49 26.98,-32.16 -29.7,-29.7 0.03,-0.01 -0.01,-0.02 29.68,-29.7 -26.97,-32.14 0.02,0 -0.03,-0.03 32.16,-26.97 -24.1,-34.41 0.03,-0.01 -0.02,-0.02 34.4,-24.08 -20.98,-36.34 0.01,-0.02 -0.01,-0.01 36.34,-20.98 -17.74,-38.06 0.02,-0.02 0,-0.01 38.05,-17.75 -14.34,-39.43 0,-0.04 39.42,-14.35 -10.86,-40.561 0.03,-0.02 0,-0.019 40.57,-10.86 -7.3,-41.308 0.01,0 -0.01,-0.032 41.33,-7.289 -3.65,-41.832 0.04,-0.019 0,0 41.82,-3.66 0.01,-41.969 0,-0.031 41.97,0 3.65,-41.829 0.05,0 0,0 41.83,3.649 7.28,-41.328 0,0 0.01,-0.032 41.33,7.301 10.87,-40.582 0.04,0.012 0,-0.012 40.56,10.86 14.36,-39.43 0.01,0 0,-0.027 39.44,14.347 17.75,-38.051 0.02,0.024 0.01,-0.024 38.07,17.754 19.91,-34.511 1.08,-1.852 36.34,20.973 24.1,-34.403 0.03,0.012 0,0 34.4,24.078 26.98,-32.16 32.16,26.992 29.7,-29.722 0.02,0.031 0.02,0 29.69,29.691 32.16,-26.992 26.98,32.152 34.41,-24.101 0.04,0.031 0,0 24.08,34.41 36.33,-20.992 0.04,0 20.99,36.32 38.05,-17.738 0.02,0.051 0.02,0 17.72,38.039 39.47,-14.34 0,0 0.02,-0.019 14.35,39.437 40.58,-10.879 0,0.051 0.01,0 10.87,40.57 41.33,-7.301 0.02,0 7.28,41.352 41.86,-3.66 0,0.019 3.65,41.829 41.99,0 0.01,0 0,41.98 41.84,3.68 0,0.019 0.02,0 -3.68,41.813 41.35,7.289 0,0 0.01,0.019 -7.28,41.34 40.57,10.86 -0.02,0.039 0.02,0 -10.87,40.541 39.44,14.36 0,0.01 0.01,0 -14.36,39.47 38.07,17.75 0,0.03 -17.74,38.06 36.34,20.96 0,0 0.02,0.02 -21,36.37 34.42,24.08 -0.02,0.02 0.02,0.01 -24.09,34.39 32.14,26.99 -0.01,0 0.03,0.01 -26.99,32.16" /><path
         id="path112"
         style="fill:none;stroke:#ee2137;stroke-width:35.69039917;stroke-linecap:butt;stroke-linejoin:miter;stroke-miterlimit:10;stroke-dasharray:none;stroke-opacity:1"
         d="m 6508.5,1338.99 c 0,-295.28 -239.37,-534.638 -534.65,-534.638 -295.28,0 -534.65,239.358 -534.65,534.638 0,295.29 239.37,534.66 534.65,534.66 295.28,0 534.65,-239.37 534.65,-534.66 z" /><path
         id="path114"
         style="fill:none;stroke:#ffffff;stroke-width:7.13809013;stroke-linecap:butt;stroke-linejoin:miter;stroke-miterlimit:10;stroke-dasharray:none;stroke-opacity:1"
         d="m 6570.64,1338.99 c 0,-329.6 -267.18,-596.771 -596.79,-596.771 -329.58,0 -596.78,267.171 -596.78,596.771 0,329.6 267.2,596.8 596.78,596.8 329.61,0 596.79,-267.2 596.79,-596.8 z" /><path
         id="path116"
         style="fill:#ffffff;fill-opacity:1;fill-rule:nonzero;stroke:none"
         d="m 5973.85,1823.02 11.85,-36.47 38.34,0 -31.01,-22.54 11.84,-36.46 -31.02,22.54 -31.01,-22.54 11.86,36.46 -31.03,22.54 38.33,0 11.85,36.47" /><path
         id="path118"
         style="fill:#ffffff;fill-opacity:1;fill-rule:nonzero;stroke:none"
         d="m 5731.87,1758.15 28.47,-25.65 33.2,19.18 -15.6,-35.02 28.51,-25.66 -38.14,4.01 -15.59,-35.01 -7.97,37.49 -38.14,3.99 33.21,19.18 -7.95,37.49" /><path
         id="path120"
         style="fill:#ffffff;fill-opacity:1;fill-rule:nonzero;stroke:none"
         d="m 5554.7,1581.01 37.5,-7.98 19.17,33.2 3.99,-38.12 37.51,-7.97 -35.02,-15.6 4,-38.13 -25.64,28.48 -35.04,-15.58 19.18,33.2 -25.65,28.5" /><path
         id="path122"
         style="fill:#ffffff;fill-opacity:1;fill-rule:nonzero;stroke:none"
         d="m 5489.84,1338.99 36.48,11.84 0,38.34 22.53,-31.03 36.46,11.88 -22.53,-31.03 22.51,-31.01 -36.44,11.84 -22.53,-31.02 0,38.35 -36.48,11.84" /><path
         id="path124"
         style="fill:#ffffff;fill-opacity:1;fill-rule:nonzero;stroke:none"
         d="m 5554.7,1096.99 25.65,28.48 -19.16,33.2 35.02,-15.58 25.66,28.5 -4.02,-38.13 35.01,-15.61 -37.5,-7.97 -3.99,-38.12 -19.16,33.19 -37.51,-7.96" /><path
         id="path126"
         style="fill:#ffffff;fill-opacity:1;fill-rule:nonzero;stroke:none"
         d="m 5731.87,919.82 7.97,37.5 -33.2,19.168 38.11,4.004 7.98,37.508 15.59,-35.008 38.13,3.977 -28.49,-25.629 15.59,-35.039 -33.19,19.179 -28.49,-25.66" /><path
         id="path128"
         style="fill:#ffffff;fill-opacity:1;fill-rule:nonzero;stroke:none"
         d="m 5973.87,854.98 -11.84,36.469 -38.34,0 31.02,22.52 -11.85,36.461 31.01,-22.532 31,22.524 -11.82,-36.453 31.01,-22.52 -38.34,0 -11.85,-36.469" /><path
         id="path130"
         style="fill:#ffffff;fill-opacity:1;fill-rule:nonzero;stroke:none"
         d="m 6215.87,919.82 -28.48,25.66 -33.2,-19.171 15.6,35.031 -28.5,25.648 38.12,-3.996 15.6,34.998 7.98,-37.478 38.11,-4.024 -33.19,-19.16 7.96,-37.508" /><path
         id="path132"
         style="fill:#ffffff;fill-opacity:1;fill-rule:nonzero;stroke:none"
         d="m 6393.04,1096.99 -37.5,7.98 -19.17,-33.2 -4.01,38.11 -37.5,7.98 35.02,15.6 -4,38.11 25.64,-28.48 35.04,15.58 -19.19,-33.18 25.67,-28.5" /><path
         id="path134"
         style="fill:#ffffff;fill-opacity:1;fill-rule:nonzero;stroke:none"
         d="m 6457.88,1338.99 -36.46,-11.82 0,-38.35 -22.53,31.02 -36.47,-11.84 22.53,30.99 -22.51,31.03 36.43,-11.85 22.55,31 0,-38.32 36.46,-11.86" /><path
         id="path136"
         style="fill:#ffffff;fill-opacity:1;fill-rule:nonzero;stroke:none"
         d="m 6393.04,1581.01 -25.67,-28.49 19.17,-33.19 -35.02,15.59 -25.64,-28.49 4,38.11 -35.01,15.61 37.48,7.96 4.02,38.12 19.16,-33.18 37.51,7.96" /><path
         id="path138"
         style="fill:#ffffff;fill-opacity:1;fill-rule:nonzero;stroke:none"
         d="m 6215.87,1758.16 -7.98,-37.49 33.18,-19.17 -38.1,-4 -7.96,-37.5 -15.6,35.01 -38.12,-4 28.47,25.65 -15.57,35.02 33.16,-19.16 28.52,25.64" /><g
         transform="scale(10,10)"
         id="g140"><text
           id="text142"
           style="font-variant:normal;font-weight:bold;font-size:16.46529961px;font-family:Antonio;-inkscape-font-specification:Antonio-Bold;writing-mode:lr-tb;fill:#ffffff;fill-opacity:1;fill-rule:nonzero;stroke:none"
           transform="matrix(1,0,0,-1,585.455,136.23)"><tspan
             id="tspan144"
             y="0"
             x="0 9.5498743 13.484446 21.6677 25.602907 33.703835">CITIES</tspan></text>
<text
           id="text146"
           style="font-variant:normal;font-weight:normal;font-size:15.6814003px;font-family:Antonio;-inkscape-font-specification:Antonio-Regular;writing-mode:lr-tb;fill:#ffffff;fill-opacity:1;fill-rule:nonzero;stroke:none"
           transform="matrix(1,0,0,-1,581.7468,121.2788)"><tspan
             id="tspan148"
             y="0"
             x="0 10.804484 18.441326 21.765783 31.91165 39.643116">OF USA</tspan></text>
<text
           id="text150"
           style="font-variant:normal;font-weight:bold;font-size:34.40990067px;font-family:Antonio;-inkscape-font-specification:Antonio-Bold;writing-mode:lr-tb;fill:#ffffff;fill-opacity:1;fill-rule:nonzero;stroke:none"
           transform="matrix(1,0,0,-1,570.0331,120.59911)"><tspan
             id="tspan152"
             y="0"
             x="0">8</tspan></text>
</g></g></g></svg>