<svg width="1400" height="100" xmlns="http://www.w3.org/2000/svg">
 <metadata id="metadata8">image/svg+xml</metadata>

 <g>
  <title>background</title>
  <rect fill="none" id="canvas_background" height="102" width="1402" y="-1" x="-1"/>
 </g>
 <g>
  <title>Layer 1</title>
  <path fill="#35343a" fill-rule="nonzero" d="m355.125005,1010.951123c0,0.798875 0.12375,1.479 0.37375,2.038625c0.2475,0.563 0.58875,0.985375 1.02,1.267625c0.43,0.2875 0.9,0.42625 1.4125,0.42625c0.51875,0 0.99125,-0.133875 1.41875,-0.400875c0.42875,-0.2715 0.77,-0.685125 1.0275,-1.24275c0.2525,-0.556125 0.38,-1.253875 0.38,-2.088875c0,-0.785125 -0.1275,-1.456 -0.38,-2.022375c-0.2575,-0.5665 -0.6025,-0.996125 -1.03875,-1.295c-0.435,-0.29875 -0.9125,-0.44625 -1.42875,-0.44625c-0.54,0 -1.02,0.149875 -1.445,0.4575c-0.4225,0.306125 -0.755,0.745125 -0.9875,1.317375c-0.235,0.568875 -0.3525,1.2325 -0.3525,1.98875zm5.79625,4.32625l0,-0.290125c-0.39625,0.45275 -0.785,0.821375 -1.17125,1.108c-0.385,0.28225 -0.8,0.497 -1.2525,0.6445c-0.44875,0.148875 -0.93875,0.222625 -1.47125,0.222625c-0.70625,0 -1.3575,-0.151375 -1.95875,-0.44725c-0.6025,-0.30025 -1.12125,-0.725125 -1.55875,-1.27875c-0.44,-0.55375 -0.7725,-1.206625 -0.9975,-1.953625c-0.23,-0.7505 -0.34125,-1.55425 -0.34125,-2.43025c0,-1.837375 0.45,-3.273875 1.34875,-4.30275c0.89875,-1.02975 2.08125,-1.542375 3.55125,-1.542375c0.84625,0 1.56375,0.144 2.145,0.4365c0.58625,0.291 1.1525,0.73875 1.70625,1.34225l0,-4.346125c0,-0.605 0.12,-1.064 0.36,-1.373625c0.24125,-0.309 0.58375,-0.46525 1.03,-0.46525c0.44625,0 0.7925,0.145 1.03125,0.428625c0.24375,0.28525 0.3625,0.705125 0.3625,1.256375l0,12.99125c0,0.5615 -0.12875,0.983875 -0.38875,1.262625c-0.26,0.279875 -0.59375,0.422375 -1.005,0.422375c-0.4025,0 -0.735,-0.145 -0.99625,-0.4375c-0.26375,-0.291 -0.39375,-0.709875 -0.39375,-1.2475" id="path16"/>
  <path fill="#35343a" fill-rule="nonzero" d="m369.122505,1010.024873l5.34,0c-0.0725,-1.00725 -0.34375,-1.75975 -0.81625,-2.25975c-0.47125,-0.503875 -1.09125,-0.752875 -1.86125,-0.752875c-0.73,0 -1.33625,0.253875 -1.80625,0.764125c-0.47,0.506375 -0.75875,1.253375 -0.85625,2.2485zm5.76125,1.67l-5.76125,0c0.005,0.669875 0.14125,1.261125 0.40375,1.77c0.26125,0.51025 0.61125,0.895 1.0475,1.15275c0.43375,0.26125 0.91375,0.391125 1.43875,0.391125c0.3525,0 0.67375,-0.0415 0.965,-0.124c0.2925,-0.078625 0.5725,-0.214875 0.8475,-0.388625c0.27375,-0.17875 0.52375,-0.36625 0.75625,-0.567375c0.22875,-0.20125 0.52625,-0.47275 0.895,-0.818875c0.15,-0.129875 0.3675,-0.19625 0.6475,-0.19625c0.3025,0 0.54625,0.084875 0.73375,0.249c0.18625,0.165 0.28,0.398375 0.28,0.705c0,0.26225 -0.105,0.57375 -0.31375,0.933625c-0.20875,0.351125 -0.5225,0.69625 -0.94375,1.021c-0.41875,0.326625 -0.95,0.600125 -1.585,0.816375c-0.6375,0.214875 -1.36875,0.32375 -2.195,0.32375c-1.895,0 -3.3625,-0.54 -4.41375,-1.620125c-1.05,-1.078625 -1.57625,-2.54 -1.57625,-4.391125c0,-0.868625 0.13,-1.678625 0.38875,-2.422375c0.2575,-0.743625 0.63625,-1.38225 1.1325,-1.9165c0.49625,-0.52725 1.1075,-0.9375 1.83375,-1.223625c0.7275,-0.283625 1.535,-0.42625 2.4175,-0.42625c1.1525,0 2.14,0.24275 2.96,0.729c0.8275,0.485875 1.4425,1.11475 1.85375,1.882375c0.4075,0.7685 0.615,1.556125 0.615,2.3525c0,0.74125 -0.215,1.22125 -0.63625,1.443875c-0.4275,0.21575 -1.02375,0.32475 -1.79125,0.32475" id="path18"/>
  <path fill="#35343a" fill-rule="nonzero" d="m389.275006,1013.109873c0,0.8115 -0.19625,1.50775 -0.5925,2.085c-0.395,0.5825 -0.98,1.02 -1.75125,1.32025c-0.7725,0.295875 -1.71625,0.44725 -2.82125,0.44725c-1.06,0 -1.9675,-0.165 -2.7225,-0.48625c-0.75625,-0.32375 -1.3125,-0.73 -1.67125,-1.213375c-0.3575,-0.484 -0.54,-0.974125 -0.54,-1.463c0,-0.323625 0.115,-0.601 0.345,-0.8295c0.2325,-0.2305 0.52125,-0.34775 0.87375,-0.34775c0.3125,0 0.54625,0.07775 0.71375,0.227625c0.16375,0.150875 0.325,0.36375 0.475,0.63625c0.3025,0.524875 0.66375,0.918375 1.08375,1.17625c0.42,0.25875 0.99625,0.388625 1.7225,0.388625c0.58875,0 1.0725,-0.131375 1.45,-0.3965c0.3775,-0.26125 0.5675,-0.56 0.5675,-0.896c0,-0.52 -0.19875,-0.897375 -0.58875,-1.13625c-0.39375,-0.23475 -1.03875,-0.46375 -1.9375,-0.678625c-1.015,-0.2525 -1.83875,-0.515125 -2.475,-0.7915c-0.63625,-0.277375 -1.145,-0.642625 -1.52625,-1.09475c-0.38125,-0.455125 -0.5725,-1.01275 -0.5725,-1.67525c0,-0.588875 0.17625,-1.146 0.5275,-1.671c0.34875,-0.525375 0.87375,-0.941375 1.56,-1.25625c0.68625,-0.315 1.51625,-0.47025 2.48625,-0.47025c0.76125,0 1.4475,0.080125 2.055,0.23775c0.60875,0.15875 1.11625,0.372125 1.52125,0.63875c0.40875,0.266125 0.71625,0.5585 0.92875,0.88225c0.21125,0.32625 0.3175,0.640125 0.3175,0.94875c0,0.337375 -0.11125,0.61625 -0.33875,0.8315c-0.22625,0.214875 -0.55,0.32475 -0.965,0.32475c-0.30375,0 -0.55875,-0.087375 -0.7725,-0.25875c-0.21375,-0.17625 -0.45625,-0.433625 -0.72875,-0.775875c-0.2225,-0.290625 -0.48375,-0.52 -0.7875,-0.692875c-0.3025,-0.173875 -0.71125,-0.258875 -1.23,-0.258875c-0.5325,0 -0.97375,0.11525 -1.3275,0.342875c-0.35,0.222125 -0.52875,0.50725 -0.52875,0.84225c0,0.31 0.13125,0.564875 0.39,0.762625c0.25875,0.197375 0.60625,0.359875 1.04625,0.49225c0.43875,0.128875 1.04125,0.287625 1.81125,0.472625c0.915,0.225125 1.66,0.49025 2.24125,0.800375c0.5775,0.3095 1.015,0.67225 1.315,1.09375c0.2975,0.42225 0.44625,0.900875 0.44625,1.440875" id="path20"/>
  <path fill="#35343a" fill-rule="nonzero" d="m394.712506,1006.654748l0,8.517625c0,0.588875 -0.13875,1.033625 -0.42,1.337375c-0.28,0.30125 -0.63625,0.452625 -1.0675,0.452625c-0.43,0 -0.78375,-0.15625 -1.05125,-0.464875c-0.27125,-0.3115 -0.40375,-0.751375 -0.40375,-1.325125l0,-8.42875c0,-0.5825 0.1325,-1.023875 0.40375,-1.315875c0.2675,-0.296375 0.62125,-0.442875 1.05125,-0.442875c0.43125,0 0.7875,0.1465 1.0675,0.442875c0.28125,0.292 0.42,0.706 0.42,1.227zm-1.455,-3.041c-0.41125,0 -0.7625,-0.1265 -1.04875,-0.3765c-0.29375,-0.252375 -0.43875,-0.608375 -0.43875,-1.067375c0,-0.418875 0.14625,-0.762125 0.4475,-1.03125c0.29625,-0.271 0.64375,-0.40375 1.04,-0.40375c0.38,0 0.72,0.121125 1.01625,0.36525c0.29125,0.243625 0.43875,0.601 0.43875,1.06975c0,0.45025 -0.14125,0.80625 -0.4275,1.0625c-0.29,0.254 -0.63125,0.381375 -1.0275,0.381375" id="path22"/>
  <path fill="#35343a" fill-rule="nonzero" d="m400.052506,1010.875998c0,1.193875 0.2625,2.100125 0.78375,2.709c0.5225,0.609875 1.19625,0.916 2.025,0.916c0.48875,0 0.95125,-0.132375 1.38375,-0.391125c0.4375,-0.265125 0.79375,-0.661125 1.065,-1.19c0.275,-0.52725 0.40875,-1.169875 0.40875,-1.92725c0,-1.198625 -0.26375,-2.13375 -0.79,-2.802625c-0.52875,-0.6715 -1.22625,-1.0025 -2.09125,-1.0025c-0.83875,0 -1.515,0.317375 -2.0225,0.9585c-0.5075,0.640125 -0.7625,1.548875 -0.7625,2.73zm8.53875,-3.733375l0,8.554625c0,0.9815 -0.105,1.820375 -0.315,2.525375c-0.2075,0.707 -0.5425,1.288625 -1.0025,1.75c-0.45875,0.46 -1.0625,0.80225 -1.8075,1.0235c-0.745,0.222625 -1.67,0.334 -2.775,0.334c-1.01625,0 -1.9225,-0.142625 -2.7225,-0.425375c-0.79875,-0.286125 -1.41375,-0.650875 -1.845,-1.098625c-0.43,-0.452625 -0.64625,-0.911125 -0.64625,-1.387625c0,-0.360875 0.12,-0.653375 0.365,-0.8785c0.245,-0.2275 0.53875,-0.34125 0.88625,-0.34125c0.4325,0 0.80875,0.189875 1.1325,0.57275c0.15875,0.193375 0.32125,0.388625 0.49,0.5845c0.16875,0.200125 0.35625,0.369125 0.5625,0.511625c0.20125,0.13975 0.45125,0.24225 0.73875,0.311125c0.2875,0.066375 0.61875,0.1025 0.9925,0.1025c0.76125,0 1.355,-0.1035 1.775,-0.317375c0.41875,-0.211375 0.715,-0.50875 0.8875,-0.891625c0.165,-0.38225 0.26375,-0.7885 0.295,-1.223625c0.02625,-0.433625 0.04875,-1.13375 0.06625,-2.098625c-0.455,0.632375 -0.98,1.11475 -1.57375,1.44625c-0.59375,0.328625 -1.2975,0.495125 -2.12,0.495125c-0.98375,0 -1.845,-0.249 -2.58125,-0.753875c-0.74,-0.5025 -1.30625,-1.21 -1.7,-2.11625c-0.3975,-0.907625 -0.595,-1.953625 -0.595,-3.144c0,-0.878375 0.12125,-1.67725 0.3625,-2.389625c0.24125,-0.713875 0.58125,-1.314 1.03,-1.80525c0.44625,-0.48975 0.95875,-0.857375 1.54125,-1.1025c0.58375,-0.2485 1.22375,-0.3725 1.92375,-0.3725c0.8325,0 1.55625,0.158625 2.16625,0.479c0.6125,0.31975 1.18,0.82125 1.7075,1.503875l0,-0.3955c0,-0.50975 0.125,-0.90725 0.37625,-1.1875c0.25,-0.28475 0.57375,-0.422375 0.97,-0.422375c0.5675,0 0.94375,0.1865 1.135,0.556125c0.18375,0.370125 0.28,0.902875 0.28,1.601625" id="path24"/>
  <path fill="#35343a" fill-rule="nonzero" d="m414.246256,1006.612248l0,0.3575c0.51625,-0.683625 1.08125,-1.184625 1.69875,-1.5035c0.6125,-0.32025 1.31875,-0.481375 2.11875,-0.481375c0.7775,0 1.46875,0.1675 2.085,0.504875c0.6075,0.338875 1.06625,0.817875 1.3675,1.4375c0.19375,0.357875 0.3225,0.7475 0.3775,1.164c0.05875,0.4175 0.085,0.95225 0.085,1.59775l0,5.483375c0,0.588875 -0.135,1.033625 -0.40125,1.337375c-0.27125,0.30125 -0.6225,0.452625 -1.05375,0.452625c-0.4375,0 -0.795,-0.15625 -1.0675,-0.464875c-0.2725,-0.3115 -0.4125,-0.751375 -0.4125,-1.325125l0,-4.912625c0,-0.96725 -0.1325,-1.712375 -0.4025,-2.23c-0.27,-0.51125 -0.80625,-0.7685 -1.61375,-0.7685c-0.52375,0 -1.00375,0.15625 -1.43625,0.46875c-0.43,0.308625 -0.74875,0.742625 -0.95,1.287625c-0.14125,0.440875 -0.21375,1.263625 -0.21375,2.463375l0,3.691375c0,0.59525 -0.13875,1.0425 -0.415,1.34275c-0.27875,0.295875 -0.63625,0.44725 -1.07375,0.44725c-0.42375,0 -0.7725,-0.15625 -1.04875,-0.464875c-0.2725,-0.3115 -0.40625,-0.751375 -0.40625,-1.325125l0,-8.517625c0,-0.5595 0.12,-0.9775 0.36375,-1.254875c0.245,-0.277375 0.57875,-0.415 1.00625,-0.415c0.2575,0 0.49125,0.06 0.69875,0.185c0.2075,0.120125 0.37875,0.30525 0.50125,0.548875c0.12875,0.243625 0.1925,0.5425 0.1925,0.8935" id="path26"/>
  <path fill="#35343a" fill-rule="nonzero" d="m427.376256,1010.024873l5.34125,0c-0.07375,-1.00725 -0.34625,-1.75975 -0.81875,-2.25975c-0.4675,-0.503875 -1.09,-0.752875 -1.85875,-0.752875c-0.7325,0 -1.33875,0.253875 -1.8075,0.764125c-0.47,0.506375 -0.7575,1.253375 -0.85625,2.2485zm5.76,1.67l-5.76,0c0.00625,0.669875 0.14125,1.261125 0.405,1.77c0.26,0.51025 0.61,0.895 1.045,1.15275c0.43625,0.26125 0.915,0.391125 1.44,0.391125c0.35375,0 0.67375,-0.0415 0.96875,-0.124c0.28875,-0.078625 0.57,-0.214875 0.845,-0.388625c0.27375,-0.17875 0.525,-0.36625 0.75375,-0.567375c0.23125,-0.20125 0.53,-0.47275 0.89625,-0.818875c0.15,-0.129875 0.36875,-0.19625 0.6475,-0.19625c0.305,0 0.545,0.084875 0.73125,0.249c0.18875,0.165 0.28375,0.398375 0.28375,0.705c0,0.26225 -0.1025,0.57375 -0.31125,0.933625c-0.21,0.351125 -0.525,0.69625 -0.94625,1.021c-0.42,0.326625 -0.94875,0.600125 -1.58625,0.816375c-0.635,0.214875 -1.37,0.32375 -2.195,0.32375c-1.89375,0 -3.36125,-0.54 -4.415,-1.620125c-1.04875,-1.078625 -1.57625,-2.54 -1.57625,-4.391125c0,-0.868625 0.1325,-1.678625 0.38875,-2.422375c0.26,-0.743625 0.6375,-1.38225 1.135,-1.9165c0.4975,-0.52725 1.1075,-0.9375 1.83375,-1.223625c0.7275,-0.283625 1.53125,-0.42625 2.41875,-0.42625c1.15,0 2.13625,0.24275 2.95875,0.729c0.82625,0.485875 1.44125,1.11475 1.8525,1.882375c0.41125,0.7685 0.615,1.556125 0.615,2.3525c0,0.74125 -0.2125,1.22125 -0.635,1.443875c-0.42625,0.21575 -1.0225,0.32475 -1.79375,0.32475" id="path28"/>
  <path fill="#35343a" fill-rule="nonzero" d="m440.323757,1010.951123c0,0.798875 0.125,1.479 0.37125,2.038625c0.2475,0.563 0.58875,0.985375 1.02,1.267625c0.43125,0.2875 0.9025,0.42625 1.4125,0.42625c0.52,0 0.9925,-0.133875 1.4225,-0.400875c0.4225,-0.2715 0.7675,-0.685125 1.02125,-1.24275c0.25625,-0.556125 0.3875,-1.253875 0.3875,-2.088875c0,-0.785125 -0.13125,-1.456 -0.3875,-2.022375c-0.25375,-0.5665 -0.59875,-0.996125 -1.035,-1.295c-0.43375,-0.29875 -0.91125,-0.44625 -1.43,-0.44625c-0.5375,0 -1.02,0.149875 -1.44625,0.4575c-0.42375,0.306125 -0.75375,0.745125 -0.98625,1.317375c-0.23375,0.568875 -0.35,1.2325 -0.35,1.98875zm5.7925,4.32625l0,-0.290125c-0.395,0.45275 -0.78375,0.821375 -1.17125,1.108c-0.38375,0.28225 -0.8025,0.497 -1.25,0.6445c-0.4525,0.148875 -0.94,0.222625 -1.475,0.222625c-0.70375,0 -1.355,-0.151375 -1.95625,-0.44725c-0.60125,-0.30025 -1.12125,-0.725125 -1.56,-1.27875c-0.43625,-0.55375 -0.77125,-1.206625 -0.9975,-1.953625c-0.225,-0.7505 -0.34,-1.55425 -0.34,-2.43025c0,-1.837375 0.45125,-3.273875 1.34875,-4.30275c0.89875,-1.02975 2.08375,-1.542375 3.5525,-1.542375c0.84875,0 1.5625,0.144 2.145,0.4365c0.58375,0.291 1.15125,0.73875 1.70375,1.34225l0,-4.346125c0,-0.605 0.1225,-1.064 0.3625,-1.373625c0.24125,-0.309 0.5825,-0.46525 1.0325,-0.46525c0.44375,0 0.78625,0.145 1.03,0.428625c0.24125,0.28525 0.36,0.705125 0.36,1.256375l0,12.99125c0,0.5615 -0.12875,0.983875 -0.39,1.262625c-0.25875,0.279875 -0.59375,0.422375 -1,0.422375c-0.40625,0 -0.7375,-0.145 -1.00125,-0.4375c-0.2625,-0.291 -0.39375,-0.709875 -0.39375,-1.2475" id="path30"/>
  <path fill="#35343a" fill-rule="nonzero" d="m460.241257,1011.038623c0,1.17225 0.26875,2.073625 0.8025,2.704c0.5375,0.626 1.24,0.941 2.11,0.941c0.74,0 1.38,-0.319875 1.91625,-0.964875c0.53625,-0.642625 0.80375,-1.566375 0.80375,-2.767625c0,-0.77725 -0.11125,-1.44375 -0.33375,-2.00625c-0.22375,-0.5625 -0.5425,-0.99375 -0.9525,-1.299875c-0.4075,-0.307625 -0.885,-0.4575 -1.43375,-0.4575c-0.56,0 -1.05875,0.149875 -1.49875,0.4575c-0.4375,0.306125 -0.78625,0.747625 -1.035,1.328625c-0.255,0.576125 -0.37875,1.266125 -0.37875,2.065zm-0.14,-8.7525l0,4.5c0.5525,-0.576125 1.1175,-1.016125 1.6925,-1.319875c0.57625,-0.3085 1.28875,-0.458875 2.1375,-0.458875c0.97625,0 1.835,0.229875 2.57375,0.69625c0.7375,0.46 1.3075,1.13525 1.715,2.015125c0.40875,0.882375 0.61,1.92775 0.61,3.13375c0,0.895 -0.11125,1.713875 -0.34,2.456125c-0.22625,0.745125 -0.555,1.394 -0.9875,1.9375c-0.43125,0.544875 -0.95375,0.96875 -1.57,1.269c-0.615,0.295875 -1.29375,0.44725 -2.03375,0.44725c-0.45125,0 -0.87875,-0.056125 -1.2775,-0.165c-0.4,-0.106 -0.74,-0.247625 -1.02,-0.424875c-0.28125,-0.17625 -0.52,-0.357375 -0.71875,-0.543875c-0.19875,-0.1875 -0.45625,-0.46725 -0.78125,-0.841375l0,0.290125c0,0.556125 -0.13125,0.972625 -0.39875,1.26025c-0.265,0.28225 -0.60375,0.42475 -1.015,0.42475c-0.415,0 -0.75,-0.1425 -0.99875,-0.42475c-0.24625,-0.287625 -0.37125,-0.704125 -0.37125,-1.26025l0,-12.859875c0,-0.59625 0.12,-1.047375 0.3625,-1.355c0.24125,-0.306125 0.57625,-0.461375 1.0075,-0.461375c0.4525,0 0.8,0.147375 1.04625,0.441375c0.24625,0.291 0.3675,0.706 0.3675,1.243625" id="path32"/>
  <path fill="#35343a" fill-rule="nonzero" d="m473.621257,1017.327623l0.2675,-0.658625l-3.625,-9.1265c-0.2225,-0.526375 -0.335,-0.90625 -0.335,-1.142625c0,-0.252375 0.06625,-0.48875 0.1975,-0.705c0.12875,-0.213375 0.305,-0.38625 0.53125,-0.516125c0.22625,-0.1275 0.46375,-0.193875 0.70875,-0.193875c0.42375,0 0.745,0.13625 0.96125,0.40375c0.21375,0.2715 0.40375,0.65625 0.57125,1.161125l2.49125,7.25l2.3625,-6.745125c0.18625,-0.54725 0.3575,-0.969625 0.50625,-1.283625c0.15125,-0.306125 0.3125,-0.516125 0.48125,-0.6235c0.16875,-0.1075 0.40875,-0.162625 0.71875,-0.162625c0.22125,0 0.43625,0.06 0.64125,0.180125c0.205,0.11875 0.3625,0.276375 0.4725,0.476125c0.1125,0.2065 0.16875,0.415 0.16875,0.638625c-0.03,0.13525 -0.07625,0.330125 -0.13875,0.5825c-0.06375,0.254 -0.145,0.507875 -0.23875,0.767625l-3.84,10.05375c-0.3325,0.88625 -0.655,1.579125 -0.9725,2.0815c-0.3175,0.504875 -0.73375,0.891125 -1.2575,1.162125c-0.52125,0.269 -1.225,0.402875 -2.1075,0.402875c-0.8625,0 -1.51125,-0.091375 -1.9425,-0.278875c-0.43125,-0.1865 -0.6475,-0.52875 -0.6475,-1.026375c0,-0.337375 0.10125,-0.598625 0.30625,-0.78125c0.2075,-0.185 0.50875,-0.276375 0.9125,-0.276375c0.1575,0 0.31125,0.024 0.46375,0.065c0.1875,0.045375 0.34875,0.064 0.48625,0.064c0.33875,0 0.60375,-0.048875 0.7975,-0.149c0.195,-0.101 0.37,-0.275875 0.5225,-0.527375c0.155,-0.245125 0.33375,-0.61125 0.53625,-1.09225" id="path34"/>
  <path fill="#35343a" fill-rule="nonzero" d="m528.130008,1005.242623l0.7025,0l0,-0.88375c0,-0.919875 0.1175,-1.65375 0.34875,-2.19775c0.2325,-0.541 0.63125,-0.9375 1.18875,-1.185c0.5575,-0.248625 1.32,-0.375 2.2925,-0.375c1.72,0 2.58,0.42275 2.58,1.263625c0,0.277875 -0.09,0.51025 -0.27125,0.704125c-0.1775,0.192375 -0.39125,0.291 -0.63875,0.291c-0.115,0 -0.31125,-0.024 -0.59125,-0.066375c-0.28125,-0.0425 -0.51625,-0.0625 -0.7125,-0.0625c-0.53,0 -0.87375,0.15375 -1.025,0.46775c-0.14875,0.314875 -0.225,0.76125 -0.225,1.34375l0,0.700125l0.72125,0c1.1225,0 1.685,0.339875 1.685,1.01475c0,0.481375 -0.15,0.79 -0.44875,0.917375c-0.29875,0.129 -0.70875,0.195375 -1.23625,0.195375l-0.72125,0l0,7.80225c0,0.580125 -0.1425,1.023875 -0.41875,1.3325c-0.275,0.305125 -0.635,0.4575 -1.0725,0.4575c-0.415,0 -0.7625,-0.152375 -1.0375,-0.4575c-0.28125,-0.308625 -0.4175,-0.752375 -0.4175,-1.3325l0,-7.80225l-0.81125,0c-0.43875,0 -0.775,-0.099125 -1.01125,-0.30025c-0.24,-0.192375 -0.3575,-0.44975 -0.3575,-0.768625c0,-0.705 0.49375,-1.058625 1.4775,-1.058625" id="path36"/>
  <path fill="#35343a" fill-rule="nonzero" d="m538.652508,1012.708498l0,2.463875c0,0.59525 -0.14125,1.0425 -0.4225,1.34275c-0.28125,0.295875 -0.635,0.44725 -1.06875,0.44725c-0.42375,0 -0.77125,-0.151375 -1.04375,-0.452625c-0.275,-0.30375 -0.41125,-0.7485 -0.41125,-1.337375l0,-8.202625c0,-1.32225 0.48,-1.984875 1.43375,-1.984875c0.4925,0 0.8425,0.15525 1.06,0.464875c0.2125,0.306625 0.33,0.764125 0.35375,1.370125c0.35375,-0.606 0.715,-1.0635 1.08625,-1.370125c0.37,-0.309625 0.865,-0.464875 1.4825,-0.464875c0.6175,0 1.2175,0.15525 1.8025,0.464875c0.58125,0.306625 0.8725,0.71775 0.8725,1.231375c0,0.358875 -0.12375,0.653875 -0.37375,0.88875c-0.24875,0.232375 -0.51125,0.349125 -0.80125,0.349125c-0.1075,0 -0.37,-0.0665 -0.7825,-0.20025c-0.41375,-0.13375 -0.78,-0.20025 -1.09625,-0.20025c-0.43375,0 -0.78625,0.11525 -1.05625,0.342875c-0.2725,0.226 -0.485,0.5625 -0.63625,1.00975c-0.15,0.443875 -0.255,0.975125 -0.31375,1.59025c-0.06,0.613375 -0.085,1.36625 -0.085,2.247125" id="path38"/>
  <path fill="#35343a" fill-rule="nonzero" d="m547.316258,1010.024873l5.33625,0c-0.07125,-1.00725 -0.33875,-1.75975 -0.8125,-2.25975c-0.47125,-0.503875 -1.08875,-0.752875 -1.86,-0.752875c-0.73125,0 -1.3375,0.253875 -1.8075,0.764125c-0.46875,0.506375 -0.755,1.253375 -0.85625,2.2485zm5.75875,1.67l-5.75875,0c0.00625,0.669875 0.14125,1.261125 0.40125,1.77c0.26375,0.51025 0.61125,0.895 1.0475,1.15275c0.44125,0.26125 0.9175,0.391125 1.4425,0.391125c0.35,0 0.675,-0.0415 0.96625,-0.124c0.2925,-0.078625 0.57125,-0.214875 0.845,-0.388625c0.275,-0.17875 0.52875,-0.36625 0.75625,-0.567375c0.23125,-0.20125 0.53125,-0.47275 0.89625,-0.818875c0.15,-0.129875 0.36875,-0.19625 0.64875,-0.19625c0.29875,0 0.545,0.084875 0.73,0.249c0.18875,0.165 0.28125,0.398375 0.28125,0.705c0,0.26225 -0.1025,0.57375 -0.31375,0.933625c-0.21,0.351125 -0.52375,0.69625 -0.94,1.021c-0.42125,0.326625 -0.9525,0.600125 -1.58875,0.816375c-0.635,0.214875 -1.37,0.32375 -2.1975,0.32375c-1.89125,0 -3.36375,-0.54 -4.41,-1.620125c-1.04875,-1.078625 -1.57875,-2.54 -1.57875,-4.391125c0,-0.868625 0.1325,-1.678625 0.3875,-2.422375c0.26125,-0.743625 0.64,-1.38225 1.135,-1.9165c0.4975,-0.52725 1.1075,-0.9375 1.835,-1.223625c0.73,-0.283625 1.53125,-0.42625 2.41875,-0.42625c1.1475,0 2.13375,0.24275 2.95875,0.729c0.82625,0.485875 1.44375,1.11475 1.85375,1.882375c0.4075,0.7685 0.61375,1.556125 0.61375,2.3525c0,0.74125 -0.21125,1.22125 -0.63375,1.443875c-0.43,0.21575 -1.0225,0.32475 -1.79625,0.32475" id="path40"/>
  <path fill="#35343a" fill-rule="nonzero" d="m560.447508,1010.024873l5.34125,0c-0.07375,-1.00725 -0.3475,-1.75975 -0.815,-2.25975c-0.475,-0.503875 -1.0925,-0.752875 -1.86125,-0.752875c-0.73375,0 -1.33625,0.253875 -1.81125,0.764125c-0.4675,0.506375 -0.755,1.253375 -0.85375,2.2485zm5.7625,1.67l-5.7625,0c0.005,0.669875 0.14125,1.261125 0.405,1.77c0.25875,0.51025 0.61,0.895 1.04625,1.15275c0.4375,0.26125 0.915,0.391125 1.43875,0.391125c0.35,0 0.67375,-0.0415 0.965,-0.124c0.29375,-0.078625 0.5725,-0.214875 0.84875,-0.388625c0.2725,-0.17875 0.525,-0.36625 0.75375,-0.567375c0.23375,-0.20125 0.53125,-0.47275 0.8975,-0.818875c0.15125,-0.129875 0.3625,-0.19625 0.64625,-0.19625c0.3025,0 0.54625,0.084875 0.7325,0.249c0.18875,0.165 0.28125,0.398375 0.28125,0.705c0,0.26225 -0.1025,0.57375 -0.31125,0.933625c-0.20875,0.351125 -0.52375,0.69625 -0.945,1.021c-0.42,0.326625 -0.95,0.600125 -1.58625,0.816375c-0.63625,0.214875 -1.36875,0.32375 -2.195,0.32375c-1.89125,0 -3.36375,-0.54 -4.4175,-1.620125c-1.045,-1.078625 -1.56875,-2.54 -1.56875,-4.391125c0,-0.868625 0.12625,-1.678625 0.3825,-2.422375c0.2625,-0.743625 0.64,-1.38225 1.13375,-1.9165c0.49875,-0.52725 1.11,-0.9375 1.83625,-1.223625c0.7275,-0.283625 1.535,-0.42625 2.415,-0.42625c1.15375,0 2.14125,0.24275 2.96625,0.729c0.82125,0.485875 1.43625,1.11475 1.84875,1.882375c0.41125,0.7685 0.61375,1.556125 0.61375,2.3525c0,0.74125 -0.21,1.22125 -0.63625,1.443875c-0.4225,0.21575 -1.02,0.32475 -1.78875,0.32475" id="path42"/>
  <path fill="#35343a" fill-rule="nonzero" d="m579.317509,1010.918498c0,-0.777375 -0.1175,-1.443375 -0.35875,-1.998625c-0.23375,-0.56 -0.56375,-0.98725 -0.985,-1.286125c-0.4225,-0.29875 -0.88375,-0.44625 -1.39625,-0.44625c-0.81125,0 -1.4975,0.317375 -2.055,0.9585c-0.55875,0.640125 -0.83625,1.5815 -0.83625,2.829125c0,1.171375 0.275,2.081 0.83,2.733875c0.555,0.649875 1.24125,0.974625 2.06125,0.974625c0.49,0 0.945,-0.13875 1.35875,-0.42625c0.41875,-0.28225 0.74875,-0.7085 1.0025,-1.277375c0.2525,-0.567375 0.37875,-1.2515 0.37875,-2.0615zm-5.77125,-4.28225l0,0.354c0.55625,-0.682625 1.13125,-1.184125 1.7225,-1.503875c0.60125,-0.320375 1.27875,-0.479 2.03125,-0.479c0.9075,0 1.7425,0.232375 2.5025,0.700125c0.765,0.46975 1.365,1.149875 1.81125,2.049875c0.44,0.900375 0.66,1.959875 0.66,3.19375c0,0.90625 -0.12875,1.737375 -0.38375,2.497625c-0.2525,0.75875 -0.60375,1.3975 -1.0525,1.908625c-0.445,0.515125 -0.96875,0.912625 -1.57875,1.1875c-0.60625,0.277375 -1.26,0.4175 -1.95875,0.4175c-0.8425,0 -1.5475,-0.169875 -2.12,-0.50975c-0.57,-0.3355 -1.11875,-0.830125 -1.63375,-1.48775l0,4.42625c0,1.293875 -0.475,1.939 -1.415,1.939c-0.55375,0 -0.9175,-0.165125 -1.0975,-0.5015c-0.1825,-0.3335 -0.27,-0.82125 -0.27,-1.461l0,-12.712875c0,-0.5595 0.1225,-0.9775 0.365,-1.254875c0.24375,-0.277375 0.57875,-0.415 1.0025,-0.415c0.4175,0 0.75875,0.137625 1.02125,0.42525c0.2625,0.28475 0.39375,0.694875 0.39375,1.226125" id="path44"/>
  <path fill="#35343a" fill-rule="nonzero" d="m587.580009,1006.654748l0,8.517625c0,0.588875 -0.13625,1.033625 -0.42,1.337375c-0.2825,0.30125 -0.635,0.452625 -1.06875,0.452625c-0.43,0 -0.77875,-0.15625 -1.04875,-0.464875c-0.2725,-0.3115 -0.40375,-0.751375 -0.40375,-1.325125l0,-8.42875c0,-0.5825 0.13125,-1.023875 0.40375,-1.315875c0.27,-0.296375 0.61875,-0.442875 1.04875,-0.442875c0.43375,0 0.78625,0.1465 1.06875,0.442875c0.28375,0.292 0.42,0.706 0.42,1.227zm-1.4525,-3.041c-0.4125,0 -0.765,-0.1265 -1.0525,-0.3765c-0.28875,-0.252375 -0.43625,-0.608375 -0.43625,-1.067375c0,-0.418875 0.1475,-0.762125 0.44625,-1.03125c0.295,-0.271 0.64625,-0.40375 1.0425,-0.40375c0.38125,0 0.71625,0.121125 1.01125,0.36525c0.2975,0.243625 0.44125,0.601 0.44125,1.06975c0,0.45025 -0.1425,0.80625 -0.42625,1.0625c-0.29,0.254 -0.63,0.381375 -1.02625,0.381375" id="path46"/>
  <path fill="#35343a" fill-rule="nonzero" d="m597.963759,1015.609873l-2.6,-4.271l-1.59875,1.51125l0,2.34375c0,0.567375 -0.1475,1.002375 -0.44625,1.311c-0.30125,0.305125 -0.64375,0.4575 -1.03125,0.4575c-0.45375,0 -0.8075,-0.151375 -1.06875,-0.452625c-0.2575,-0.30375 -0.3875,-0.7485 -0.3875,-1.337375l0,-12.5625c0,-0.652375 0.12125,-1.151375 0.37625,-1.495125c0.2525,-0.338375 0.6125,-0.513625 1.08,-0.513625c0.455,0 0.815,0.15625 1.08,0.46525c0.265,0.309625 0.3975,0.768625 0.3975,1.373625l0,7.1425l3.3125,-3.472625c0.41375,-0.435125 0.72375,-0.7285 0.93875,-0.88725c0.215,-0.157625 0.47625,-0.23775 0.7875,-0.23775c0.3675,0 0.67125,0.117625 0.9175,0.351c0.24625,0.234 0.37,0.526375 0.37,0.878c0,0.435 -0.40375,1.00875 -1.20125,1.7275l-1.56,1.433625l3.01875,4.75c0.22125,0.350125 0.38125,0.620125 0.47875,0.80125c0.09625,0.182625 0.1475,0.361375 0.1475,0.524875c0,0.47125 -0.1325,0.835 -0.38625,1.1075c-0.25375,0.269 -0.5925,0.40375 -1.00625,0.40375c-0.36,0 -0.63875,-0.09475 -0.8325,-0.293375c-0.19375,-0.192875 -0.45625,-0.5455 -0.78625,-1.059125" id="path48"/>
  <path fill="#35343a" fill-rule="nonzero" d="m605.246259,1016.962373c-0.44625,0 -0.83125,-0.1425 -1.1525,-0.433625c-0.325,-0.285125 -0.48875,-0.689875 -0.48875,-1.208875c0,-0.44 0.15625,-0.815 0.4625,-1.132375c0.3125,-0.316375 0.69625,-0.473625 1.1475,-0.473625c0.45,0 0.835,0.15625 1.15875,0.46875c0.32,0.3135 0.47875,0.690875 0.47875,1.13725c0,0.513625 -0.15875,0.914 -0.47875,1.205c-0.32375,0.2925 -0.69625,0.4375 -1.1275,0.4375" id="path50"/>
  <path fill="#35343a" fill-rule="nonzero" d="m620.775009,1013.313498c0,0.366625 -0.1125,0.76025 -0.33125,1.17775c-0.22,0.4175 -0.55625,0.813875 -1.00125,1.191375c-0.45125,0.378375 -1.02,0.683625 -1.69875,0.912125c-0.68625,0.2305 -1.45375,0.34525 -2.31375,0.34525c-1.81625,0 -3.24,-0.529875 -4.26,-1.592375c-1.01875,-1.06 -1.53125,-2.482875 -1.53125,-4.266625c0,-1.2085 0.23,-2.275875 0.7,-3.2045c0.465,-0.92925 1.145,-1.648 2.0325,-2.151375c0.87875,-0.507875 1.94,-0.76275 3.17,-0.76275c0.76125,0 1.45875,0.11375 2.0975,0.334c0.635,0.223625 1.1775,0.50975 1.61875,0.86475c0.44125,0.354 0.78125,0.73 1.01375,1.1265c0.235,0.400875 0.3475,0.773375 0.3475,1.118625c0,0.3525 -0.13,0.652375 -0.39375,0.896c-0.25875,0.245125 -0.5775,0.36525 -0.95,0.36525c-0.24625,0 -0.4525,-0.0625 -0.61375,-0.19c-0.15875,-0.124 -0.3425,-0.325125 -0.54125,-0.606375c-0.35875,-0.545875 -0.73375,-0.9585 -1.13,-1.233875c-0.39125,-0.2725 -0.89125,-0.40725 -1.49375,-0.40725c-0.86875,0 -1.5725,0.339875 -2.10375,1.0185c-0.53,0.68025 -0.79875,1.611375 -0.79875,2.790125c0,0.553625 0.065,1.0625 0.2025,1.52775c0.14,0.462375 0.33875,0.8575 0.59625,1.185125c0.25625,0.328625 0.57,0.576125 0.93875,0.744625c0.36375,0.1675 0.77,0.253875 1.21,0.253875c0.58625,0 1.09125,-0.13775 1.51625,-0.411125c0.42,-0.2725 0.79,-0.689 1.115,-1.2515c0.1825,-0.33 0.37375,-0.59225 0.5825,-0.774875c0.21,-0.1875 0.4625,-0.27975 0.765,-0.27975c0.36125,0 0.6625,0.13475 0.89375,0.40725c0.23875,0.274875 0.36125,0.564875 0.36125,0.8735" id="path52"/>
  <path fill="#35343a" fill-rule="nonzero" d="m631.408759,1010.975123c0,-1.20125 -0.265,-2.13775 -0.79125,-2.80525c-0.5275,-0.669875 -1.2375,-1.00625 -2.1325,-1.00625c-0.57375,0 -1.08,0.148875 -1.52,0.450125c-0.4375,0.298875 -0.77625,0.737375 -1.015,1.318875c-0.2375,0.5825 -0.3575,1.26225 -0.3575,2.0425c0,0.7685 0.12,1.440875 0.3525,2.014625c0.235,0.576625 0.5675,1.017625 1.00375,1.32275c0.43625,0.305125 0.94875,0.4575 1.53625,0.4575c0.895,0 1.605,-0.335 2.1325,-1.00725c0.52625,-0.672875 0.79125,-1.604 0.79125,-2.787625zm2.95875,0c0,0.8735 -0.13625,1.685 -0.41125,2.42475c-0.26875,0.743625 -0.66875,1.378875 -1.18875,1.910125c-0.515,0.53225 -1.13125,0.94 -1.8525,1.227625c-0.72,0.28225 -1.53,0.42475 -2.43,0.42475c-0.88875,0 -1.69,-0.1425 -2.405,-0.433625c-0.71125,-0.285125 -1.32875,-0.69525 -1.84875,-1.233875c-0.5225,-0.5375 -0.9175,-1.168375 -1.18625,-1.897375c-0.27125,-0.7315 -0.405,-1.540125 -0.405,-2.422375c0,-0.892625 0.13375,-1.7075 0.41,-2.45125c0.27125,-0.744125 0.66375,-1.3725 1.17625,-1.897375c0.50875,-0.525375 1.1275,-0.931625 1.85375,-1.216375c0.73,-0.287625 1.52875,-0.42525 2.405,-0.42525c0.895,0 1.7025,0.145 2.43,0.432625c0.72625,0.286125 1.35,0.69625 1.865,1.231375c0.52,0.529875 0.9125,1.165125 1.18375,1.8985c0.2675,0.731375 0.40375,1.5415 0.40375,2.42775" id="path54"/>
  <path fill="#35343a" fill-rule="nonzero" d="m646.48376,1011.189998l0,3.915c0,0.620125 -0.13875,1.081 -0.41625,1.3925c-0.2825,0.308625 -0.655,0.464875 -1.115,0.464875c-0.445,0 -0.8075,-0.15625 -1.08375,-0.464875c-0.27625,-0.3115 -0.41625,-0.772375 -0.41625,-1.3925l0,-4.694875c0,-0.74025 -0.02375,-1.3125 -0.075,-1.724125c-0.04875,-0.411125 -0.1875,-0.746 -0.41125,-1.00975c-0.21875,-0.26125 -0.57375,-0.3925 -1.05625,-0.3925c-0.965,0 -1.6,0.3315 -1.9025,0.991125c-0.30875,0.662625 -0.46125,1.612875 -0.46125,2.848625l0,3.9815c0,0.61225 -0.14125,1.076125 -0.41625,1.38625c-0.27875,0.313875 -0.6425,0.471125 -1.095,0.471125c-0.44375,0 -0.8075,-0.15725 -1.095,-0.471125c-0.2825,-0.310125 -0.42625,-0.774 -0.42625,-1.38625l0,-8.423875c0,-0.553625 0.1275,-0.9775 0.38375,-1.263625c0.25375,-0.287625 0.59375,-0.432625 1.0075,-0.432625c0.40625,0 0.74,0.13625 1.01,0.40375c0.27,0.2715 0.4075,0.643625 0.4075,1.11775l0,0.27975c0.51,-0.608875 1.0525,-1.061 1.6375,-1.348625c0.58625,-0.286125 1.23,-0.430125 1.94125,-0.430125c0.7425,0 1.38125,0.145 1.90875,0.442375c0.535,0.293875 0.975,0.74025 1.32,1.336375c0.495,-0.6035 1.02625,-1.05125 1.59375,-1.34225c0.5675,-0.2925 1.19875,-0.4365 1.89,-0.4365c0.805,0 1.49875,0.158625 2.08375,0.474125c0.58125,0.317375 1.0125,0.7685 1.3025,1.358375c0.25625,0.535125 0.37875,1.370125 0.37875,2.515125l0,5.75c0,0.620125 -0.14,1.081 -0.42,1.3925c-0.2825,0.308625 -0.65,0.464875 -1.11,0.464875c-0.44625,0 -0.8125,-0.15725 -1.09625,-0.471125c-0.28625,-0.310125 -0.4275,-0.774 -0.4275,-1.38625l0,-4.952625c0,-0.632375 -0.025,-1.13725 -0.07875,-1.5225c-0.0575,-0.381375 -0.2025,-0.69725 -0.43875,-0.9575c-0.23375,-0.25975 -0.59625,-0.388625 -1.07625,-0.388625c-0.38875,0 -0.75875,0.115125 -1.10875,0.346125c-0.34375,0.23 -0.61875,0.54 -0.8175,0.92625c-0.21125,0.497625 -0.32125,1.371125 -0.32125,2.633875" id="path56"/>
  <path fill="#35343a" fill-rule="nonzero" d="m519.851258,1001.441373c-0.39875,0.204625 -0.475,0.67875 -0.44875,1.081125c-0.44375,0.430125 -0.23625,1.075125 -0.28375,1.617625c-0.1,0.30225 -0.46,0.335 -0.71,0.44975c-0.34875,-0.527375 -0.71625,-1.036125 -1.18,-1.46975l0.00125,-0.026375c-0.50625,-0.473625 -1.05375,-0.898875 -1.63125,-1.277375c-0.465,0.496125 -0.9525,0.9825 -1.4,1.5025c0.88375,0.973625 1.7025,2.01125 2.42375,3.11225c0.4975,0.837375 0.90125,1.729 1.24625,2.63775c0.7475,-0.381375 1.485,-0.78125 2.22875,-1.173875c-0.39125,-0.912625 -0.8425,-1.79975 -1.32,-2.671375c0.33,-0.17875 0.77375,-0.3535 0.8225,-0.78125c0.03875,-0.4775 -0.0675,-0.992125 0.2225,-1.412625c0.57375,0.3765 1.4525,-0.04975 1.46,-0.75c0.07375,-0.724625 -0.83375,-1.25 -1.43125,-0.838375" id="path60"/>
  <path fill="#35343a" fill-rule="nonzero" d="m513.995008,1007.483873c-0.1775,1.212375 -1.33875,2.24225 -2.57875,2.162625c-0.7175,0.0595 -1.41,-0.278875 -1.89625,-0.786625c-0.34875,-0.435125 -0.63875,-0.9375 -0.68625,-1.503375c-0.165,-1.235375 0.6975,-2.504 1.90625,-2.801875c0.53125,-0.147375 1.08625,-0.065875 1.60875,0.05525c1.13625,0.40625 1.8825,1.6875 1.64625,2.874zm-10.91125,2.557125c-0.485,0.71 -1.18625,1.26125 -1.99,1.57125c-1.51375,0.5625 -3.35625,0.18025 -4.44375,-1.03125c-0.7625,-0.831 -1.2125,-1.959875 -1.13125,-3.097125c0.05875,-1.418875 0.93625,-2.74125 2.18125,-3.40525c0.95,-0.517625 2.09625,-0.607375 3.12875,-0.318875c0.43625,0.110375 0.8375,0.314 1.20875,0.5625c0.76125,0.544875 1.34125,1.34525 1.595,2.25c0.3575,1.15875 0.13125,2.463875 -0.54875,3.46875zm12.72875,-3.183625c-0.97125,-1.609875 -2.02375,-3.213875 -3.45375,-4.4585c-1.655,-1.455 -3.8,-2.4365 -6.0275,-2.42525c-2.815,-0.037625 -5.665,0.421375 -8.255,1.55275c-2.445,1.07225 -4.5675,2.981 -5.64375,5.456c-1.03625,2.223625 -1.025,4.78525 -0.55625,7.1475c2.59125,0.648875 5.2225,1.225125 7.89375,1.351625c2.63625,0.0795 5.285,0.145 7.90625,-0.224125c3.595,-0.47225 7.11875,-1.613875 10.255,-3.447375c0,0 -0.43125,-2.368625 -2.11875,-4.952625" id="path62"/>
  <path fill="#35343a" fill-rule="nonzero" d="m492.466257,1003.252498c-1.05375,0.63475 -1.91875,1.532625 -2.63875,2.5185c-0.2125,-0.389625 -0.27625,-0.855 -0.54875,-1.2075c-0.1575,-0.2085 -0.43625,-0.121125 -0.6575,-0.126c-0.27625,0.03125 -0.5525,-0.044875 -0.81375,-0.125c0.3075,-0.4365 0.2275,-1.101125 -0.24625,-1.379875c-0.50125,-0.36275 -1.28375,-0.047875 -1.415,0.54975c-0.21125,0.65775 0.4875,1.317375 1.13125,1.143625c0.3425,0.503875 0.95875,0.42375 1.48375,0.442875c0.23875,0.412625 0.41875,0.86125 0.7225,1.232375c-0.565,1.11475 -0.88125,2.359875 -0.9075,3.6075c0.72375,0.30125 1.445,0.60975 2.17375,0.911125c0.0375,-0.787625 0.1275,-1.568875 0.24625,-2.34375c0.24375,-1.69 1.22,-3.15725 2.37875,-4.36875c-0.28625,-0.30125 -0.6075,-0.567375 -0.90875,-0.854875" id="path64"/>
  <path fill="#35343a" fill-rule="nonzero" d="m509.395008,1015.999998c-2.6725,0.580125 -5.42375,0.7485 -8.15125,0.629875c-1.84625,-0.09475 -3.69,-0.263625 -5.49125,-0.663625c-1.2775,-0.25875 -2.52875,-0.630375 -3.785,-0.98775c0.20125,1.6065 0.85125,3.141625 1.77625,4.463875c1.09375,1.537625 2.555,2.95025 4.37625,3.517625c1.41625,0.38125 3.115,0.870125 6.03125,0.81975c2.41125,-0.045875 4.78,-0.351 6.9025,-1.2485c1.3625,-0.588875 2.6425,-1.38775 3.74125,-2.388625c0.95125,-0.8975 1.69375,-2.01125 2.2075,-3.2125c0.4975,-1.13275 0.94625,-3.167375 0.8975,-4.211375c-2.60875,1.486375 -5.53375,2.77875 -8.505,3.28125" id="path66"/>
  <path fill="#e74c3c" fill-rule="nonzero" d="m636.099992,71.019238l-3.70524,0l0,-4.246455l3.70524,0l0,4.246455zm-547.785113,-13.536048l-3.788504,0l0,9.204437l-0.456059,0l0,-12.36657l4.244563,0l0,3.162133zm613.915511,1.084322l0,-28.150741l-28.691956,0l0,35.188426l-5.412148,0l0,12.451726l-13.536048,0l0,-7.037685l-16.155074,0l0,-4.246455l18.861148,0l0,-2.335172l-18.861148,0l0,-5.599492l-2.335172,0l0,5.599492l-3.70524,0l0,1.167586l-4.331611,0l0,-6.49647l-9.202545,0l0,6.49647l-15.159693,0l0,6.49647l-16.781445,0l0,-10.286867l-2.707967,0l0,-7.5789l-2.620918,0l0,-11.825355l23.733974,0l0,-2.335172l-23.733974,0l0,-1.538488l-2.335172,0l0,1.538488l-8.576174,0l0,2.335172l8.576174,0l0,11.825355l-11.28414,0l0,15.159693l-32.482352,0l0,-11.369296l-3.164025,0l0,-3.70524l13.449,0l0,-2.335172l-13.449,0l0,-1.027551l-2.335172,0l0,1.027551l-2.079703,0l0,2.335172l2.079703,0l0,3.70524l-9.658603,0l0,12.449834l-7.225029,0l0,-3.703348l7.225029,0l0,-2.335172l-16.783337,0l0,2.335172l7.223137,0l0,3.703348l-10.470426,0l0,5.414041l-4.872826,0l0,-2.706074l-4.872826,0l0,-42.767327l-3.247289,0l0,-6.49647l-10.286867,0l0,50.346227l-19.489411,0l0,-50.346227l-8.120115,0l0,4.329719l-4.331611,0l0,34.105997l-7.037685,0l0,9.204437l-3.247289,0l0,-9.204437l-13.534156,0l0,-5.953363l-5.955256,0l0,-7.039578l-5.414041,0l0,-15.699015l-8.663222,0l0,5.953363l-21.654271,0l0,22.738593l-11.369296,0l0,-7.5789l-13.534156,0l0,-15.159693l-33.564782,0l0,17.865767l-5.222912,0l0,4.872826l-3.438417,0l0,-30.858708l-3.790396,0l0,-7.577008l-6.49647,0l0,6.49647l-7.037685,0l0,25.985882l-3.247289,0l0,5.953363l-3.790396,0l0,-18.406982l-26.527097,0l0,15.159693l-8.663222,0l0,6.49647l-4.870934,0l0,3.790396l-4.872826,0l0,-4.331611l-2.976682,-2.978574l0,-6.767078l-13.263548,0l0,15.700907l-4.872826,0l0,-3.790396l-5.414041,0l0,-43.308541l-4.331611,0l0,-11.910511l-4.870934,0l0,-5.955256l-6.49647,0l0,-4.929597l-9.745652,0l0,8.718101l-5.414041,0l0,9.204437l-3.247289,0l0,31.912752l-5.955256,0l0,-5.92687l-7.5789,0l0,8.66133l-8.663222,0l0,-24.903452l-3.247289,-3.247289l0,-11.369296l-17.865767,0l0,8.120115l-9.202545,0l0,16.242122l-4.331611,0l0,-3.247289l-5.414041,0l-3.249181,3.247289l-1.406023,1.406023l0,37.570907l-6.172877,0l0,-37.353286l-5.412148,0l0,-3.790396l-8.120115,0l0,5.955256l-7.580792,0l0,9.660496l-4.244563,0l0,-4.246455l-2.335172,0l0,4.246455l-10.202278,0l0,2.335172l10.202278,0l0,12.36657l-0.999166,0l0,10.284974l-17.865199,0l0,-10.284974l-5.954877,0l0,-11.910511l-2.436413,-2.435467l0,-6.225863l-10.015502,0l0,16.781445l-13.534156,0l0,10.828082l-18.406792,0l-2.165806,-2.164859l-11.909376,0l0,29.235063l707.031714,0l0,-42.228004l-3.249181,0" id="path68"/>
  <path fill="#35343a" fill-rule="nonzero" d="m239.157504,870.323746c-0.0275,0.0275 0.00375,0.04875 0.06375,0.065c-0.0175,-0.05875 -0.0375,-0.09125 -0.06375,-0.065" id="path100"/>
  <path fill="#e74c3c" fill-rule="nonzero" d="m1336.097927,72.557695l-3.70524,0l0,-4.246455l3.70524,0l0,4.246455zm-547.785113,-13.536048l-3.788504,0l0,9.204437l-0.456059,0l0,-12.36657l4.244563,0l0,3.162133zm613.915511,1.084322l0,-28.150741l-28.691956,0l0,35.188426l-5.412148,0l0,12.451726l-13.536048,0l0,-7.037685l-16.155074,0l0,-4.246455l18.861148,0l0,-2.335172l-18.861148,0l0,-5.599492l-2.335172,0l0,5.599492l-3.70524,0l0,1.167586l-4.331611,0l0,-6.49647l-9.202545,0l0,6.49647l-15.159692,0l0,6.49647l-16.781445,0l0,-10.286866l-2.707967,0l0,-7.5789l-2.620918,0l0,-11.825355l23.733974,0l0,-2.335172l-23.733974,0l0,-1.538488l-2.335171,0l0,1.538488l-8.576174,0l0,2.335172l8.576174,0l0,11.825355l-11.284141,0l0,15.159692l-32.482352,0l0,-11.369296l-3.164025,0l0,-3.70524l13.448999,0l0,-2.335172l-13.448999,0l0,-1.027551l-2.335172,0l0,1.027551l-2.079703,0l0,2.335172l2.079703,0l0,3.70524l-9.658603,0l0,12.449834l-7.225029,0l0,-3.703348l7.225029,0l0,-2.335172l-16.783337,0l0,2.335172l7.223136,0l0,3.703348l-10.470425,0l0,5.41404l-4.872826,0l0,-2.706074l-4.872826,0l0,-42.767326l-3.247289,0l0,-6.496471l-10.286867,0l0,50.346227l-19.489411,0l0,-50.346227l-8.120115,0l0,4.329719l-4.331611,0l0,34.105997l-7.037686,0l0,9.204437l-3.247289,0l0,-9.204437l-13.534155,0l0,-5.953364l-5.955256,0l0,-7.039577l-5.414041,0l0,-15.699015l-8.663222,0l0,5.953363l-21.654271,0l0,22.738593l-11.369296,0l0,-7.578901l-13.534156,0l0,-15.159692l-33.564782,0l0,17.865767l-5.222912,0l0,4.872826l-3.438418,0l0,-30.858708l-3.790396,0l0,-7.577008l-6.49647,0l0,6.496471l-7.037685,0l0,25.985881l-3.24729,0l0,5.953364l-3.790396,0l0,-18.406982l-26.527096,0l0,15.159693l-8.663223,0l0,6.49647l-4.870933,0l0,3.790396l-4.872826,0l0,-4.331611l-2.976682,-2.978574l0,-6.767078l-13.263548,0l0,15.700908l-4.872826,0l0,-3.790396l-5.414041,0l0,-43.308542l-4.331611,0l0,-11.910511l-4.870933,0l0,-5.955256l-6.496471,0l0,-4.929596l-9.745652,0l0,8.7181l-5.41404,0l0,9.204437l-3.247289,0l0,31.912752l-5.955256,0l0,-5.92687l-7.5789,0l0,8.66133l-8.663222,0l0,-24.903452l-3.247289,-3.247289l0,-11.369297l-17.865767,0l0,8.120115l-9.202545,0l0,16.242123l-4.331611,0l0,-3.24729l-5.414041,0l-3.249181,3.24729l-1.406023,1.406023l0,37.570907l-6.172877,0l0,-37.353286l-5.412149,0l0,-3.790396l-8.120115,0l0,5.955255l-7.580792,0l0,9.660496l-4.244563,0l0,-4.246455l-2.335171,0l0,4.246455l-10.202279,0l0,2.335172l10.202279,0l0,12.36657l-0.999166,0l0,10.284974l-17.865199,0l0,-10.284974l-5.954878,0l0,-11.910512l-2.436412,-2.435466l0,-6.225863l-10.015503,0l0,16.781444l-13.534156,0l0,10.828082l-18.406792,0l-2.165806,-2.164859l-11.909375,0l0,29.235063l707.031713,0l0,-42.228004l-3.249181,0" id="svg_1"/>
 </g>
</svg>