<svg width="1000" height="1000" xmlns="http://www.w3.org/2000/svg">
 <metadata id="metadata8">image/svg+xml</metadata>
 <defs>
  <clipPath clipPathUnits="userSpaceOnUse" id="clipPath84">
   <path d="m3594.381548,-61.538467l-3655.92,0l0,4164.09l3655.92,0l0,-4164.09z" id="path86"/>
  </clipPath>
 </defs>
 <g>
  <title>background</title>
  <rect fill="none" id="canvas_background" height="402" width="582" y="-1" x="-1"/>
 </g>
 <g>
  <title>Layer 1</title>
  <path fill="#ffffff" fill-rule="nonzero" d="m551.411258,394.614991c0,-30.90875 25.0525,-55.961251 55.961251,-55.961251c30.91,0 55.962501,25.0525 55.962501,55.961251c0,30.91 -25.0525,55.962501 -55.962501,55.962501c-30.90875,0 -55.961251,-25.0525 -55.961251,-55.962501zm-99.303751,-8.39625l-91.232501,25.3775c-1.0925,0.295 -2.05625,0.935 -2.785,1.80125l-64.890001,78.031251c-0.8375,1.01375 -1.28,2.26375 -1.28,3.54375c0,0.55125 0.07875,1.0825 0.24625,1.62375c0.55125,1.7925 1.95875,3.18 3.75,3.70125l92.118751,26.805c-0.7875,19.53 3.68125,36.766251 13.42625,50.951251l-29.17625,35.516251c-1.84125,2.25375 -1.65375,5.5325 0.4625,7.55l27.74875,26.37125c1.07375,1.02375 2.52,1.565 4.01625,1.51625c1.48625,-0.04875 2.895,-0.69875 3.89875,-1.80125l32.2475,-35.162501c8.19,3.0025 28.59625,8.3875 59.643751,2.6775l32.99625,90.366251c0.64,1.76125 2.12625,3.07125 3.9475,3.49375c1.82125,0.43375 3.73,-0.0975 5.08875,-1.3875l73.513751,-69.968751c0.85625,-0.8175 1.4275,-1.87125 1.64375,-3.0425l16.47875,-92.166251c20.05125,-17.345 40.338751,-37.525001 60.341251,-59.998751c115.152502,-129.405002 132.340002,-230.560003 132.340002,-279.335004c0,-16.05625 -1.94875,-24.905 -2.0275,-25.27875c-0.4925,-2.19625 -2.265,-3.86875 -4.48,-4.2525c-5.72875,-0.985 -142.241252,-22.03125 -319.892505,155.618752c-0.22625,0.23625 -23.30875,24.04875 -48.145001,57.448751" id="path78"/>
  <g transform="matrix(0.12500000186264515,0,0,-0.12500000186264515,0,1000) " id="g80">
   <g id="g82" clip-path="url(#clipPath84)">
    <path fill="#ffffff" fill-rule="nonzero" d="m2909.871548,2588.371533l-5210.94,-5210.91c-31.29,-31.3 -82.02,-31.3 -113.31,0l-56.39,56.4c-31.29,31.3 -31.29,82 0,113.3l5210.94,5210.91c31.29,31.29 82.02,31.29 113.31,0l56.39,-56.39c31.29,-31.29 31.29,-82.02 0,-113.31" id="path88"/>
    <path fill="#ffffff" fill-rule="nonzero" d="m2834.881548,1924.901533l-5210.95,-5210.94c-31.29,-31.3 -82.01,-31.3 -113.3,0l-56.4,56.4c-31.28,31.3 -31.28,82 0,113.3l5210.95,5210.93c31.29,31.29 82.01,31.29 113.3,0l56.4,-56.39c31.28,-31.29 31.28,-82.02 0,-113.3" id="path90"/>
    <path fill="#ffffff" fill-rule="nonzero" d="m2188.751548,2484.941533l-5210.95,-5210.98c-31.29,-31.2 -82.01,-31.2 -113.3,0l-56.4,56.4c-31.28,31.3 -31.28,82 0,113.3l5210.95,5210.98c31.29,31.29 82.01,31.29 113.3,0l56.4,-56.39c31.28,-31.29 31.28,-82.02 0,-113.31" id="path92"/>
   </g>
  </g>
 </g>
</svg>